<svg xmlns="http://www.w3.org/2000/svg" id="svg5483" version="1.1" viewBox="0 0 210 297">
  <defs id="defs5477"/>
  <g id="layer1">
    <path id="path5587" fill="#000" fill-rule="evenodd" stroke-width="0" d="M106 112c-1-7-14-9-4-28 4-8 14-15 26-13 15 3 32 22 11 47l-4 6c-11 8-29 23-36 34-9 14-5 31 11 39 6 4 9 3 17 2 10-30 8-19-3-19-7 0-19-8 0-22l21-19c7-7 13-10 19-22 15-29-8-63-34-65-45-5-62 40-47 65 6 9 5 8 15 1l8-6z" class="fil0" clip-rule="evenodd" image-rendering="optimizeQuality" shape-rendering="geometricPrecision" text-rendering="geometricPrecision"/>
    <path id="path5589" fill="red" fill-rule="evenodd" stroke-width="0" d="M90 120l13-9c-4-3-7-6-7-13-1-32 40-40 53-14 5 10 2 22-3 31-4 5-14 16-20 20-13 10-36 28-27 48 6 12 22 18 26 12l4-13c-15 5-22-11-13-21l29-26 6-5c13-15 20-30 11-50-19-40-71-30-80 5-4 14 0 27 8 35z" class="fil1" clip-rule="evenodd" image-rendering="optimizeQuality" shape-rendering="geometricPrecision" text-rendering="geometricPrecision"/>
    <path id="path5591" fill="#000" fill-rule="evenodd" stroke-width="0" d="M118 212c-20 6-13 39 11 32 8-2 12-11 9-21-2-8-10-14-20-11z" class="fil0" clip-rule="evenodd" image-rendering="optimizeQuality" shape-rendering="geometricPrecision" text-rendering="geometricPrecision"/>
    <path id="path5593" fill="red" fill-rule="evenodd" stroke-width="0" d="M118 215c-5 2-5 2-7 6-7 13 5 25 17 20 16-6 7-33-10-26z" class="fil1" clip-rule="evenodd" image-rendering="optimizeQuality" shape-rendering="geometricPrecision" text-rendering="geometricPrecision"/>
  </g>
</svg>
