<svg xmlns="http://www.w3.org/2000/svg" id="svg5483" version="1.1" viewBox="0 0 210 297">
  <defs id="defs5477"/>
  <g id="layer1">
    <path id="path5665" fill="#040404" fill-rule="evenodd" stroke-width="0" d="M43 143v41l70 20 3-1 4-2 39-20v-37l6-1 6-11 13-22 3-6 3-5-6-9-1-1-6-1-56-2h-11l-6 10-5 10-6 10-5 10-1 3c0 1 1 1-2 2l-6 1z" class="fil0" clip-rule="evenodd" image-rendering="optimizeQuality" shape-rendering="geometricPrecision" text-rendering="geometricPrecision"/>
    <path id="path5667" fill="#0589d2" fill-rule="evenodd" stroke-width="0" d="M100 125l11 2v-2l-4-2c-1-3 1-5 2-6 4-4 9-2 12-4l3-1 1 1h2l7 1 2 2c1 2 0 3-1 4l-1 1-1 1-1 1c-1 1 0 2 1 3l2 2c3 3 7 2 12 2l7 1 7-12 2-4 5-8 2-4 2-4-3-1-47-2h-7l-4 7-9 19-2 3z" class="fil1" clip-rule="evenodd" image-rendering="optimizeQuality" shape-rendering="geometricPrecision" text-rendering="geometricPrecision"/>
    <path id="path5669" fill="#c8c8c6" fill-rule="evenodd" stroke-width="0" d="M113 202v-6-16-23l-6-1v10l-15-2-4-1c-3-1-2-4-2-7v-4l-13-2v7l2-1 2-2 2-2c1-1 2 0 2 1l3 4v8c0 3 0 2 5 3l18 4v22l-14-4-14-4-21-5-7-2v-18l8 1 8 2 1-2 1-2-7-2-10-2c-3-1-1-7-2-10l-5-1v37l1 1 3 1 3 1 24 7 18 5 13 3 6 2z" class="fil2" clip-rule="evenodd" image-rendering="optimizeQuality" shape-rendering="geometricPrecision" text-rendering="geometricPrecision"/>
    <path id="path5671" fill="#0589d2" fill-rule="evenodd" stroke-width="0" d="M123 189l7-3 8-4 14-6v-33l-7 3-22 8c-2 0-1 0-1 3v13l1 19z" class="fil1" clip-rule="evenodd" image-rendering="optimizeQuality" shape-rendering="geometricPrecision" text-rendering="geometricPrecision"/>
    <path id="path5673" fill="#0589d2" fill-rule="evenodd" stroke-width="0" d="M105 191v-16s-20-5-21-4l-1 1-6 3h-3l-5-3-1-3-1-1v-2l-14-2v10c0 4-1 3 1 4l20 5 15 4 8 2 7 2h1z" class="fil1" clip-rule="evenodd" image-rendering="optimizeQuality" shape-rendering="geometricPrecision" text-rendering="geometricPrecision"/>
    <path id="path5675" fill="#c8c8c6" fill-rule="evenodd" stroke-width="0" d="M129 138v3c-3 0-2-5-3-7 0-4-5-4-5-4v2l-2-1-1 1c-2 0-3-2-4-3l-1-1-1 1-1 2-7 8-2 7v4h4l1-1 2-5v5c0 2 3 2 5 2 3 0 2-1 2-4 1-6 3-5 3-3v4l11-3 2-1-1-5c1-1 3 1 3 1 2 4-1 4 6 2 2-1 3-1 3-4-2-5-7-7-12-10h-2c-2 3 0 6 0 10z" class="fil2" clip-rule="evenodd" image-rendering="optimizeQuality" shape-rendering="geometricPrecision" text-rendering="geometricPrecision"/>
    <path id="path5677" fill="#c8c8c6" fill-rule="evenodd" stroke-width="0" d="M155 177l-17 8-8 4-4 2h-5v-9l-1-18v-9l-5 2v44l27-13 5-2 11-6v-5-5l-1-19v-10l-3 2v24l1 10z" class="fil2" clip-rule="evenodd" image-rendering="optimizeQuality" shape-rendering="geometricPrecision" text-rendering="geometricPrecision"/>
    <path id="path5679" fill="#c8c8c6" fill-rule="evenodd" stroke-width="0" d="M94 124l4 1 2-4 2-3 8-16 4-7 59 2 3-4-8-1h-24l-16-1h-16l-5 8-12 23-1 2z" class="fil2" clip-rule="evenodd" image-rendering="optimizeQuality" shape-rendering="geometricPrecision" text-rendering="geometricPrecision"/>
    <path id="path5681" fill="#c8c8c6" fill-rule="evenodd" stroke-width="0" d="M89 127a354 354 0 0021 1h-5l-4-1-9-2 17-31 3-5 18 1h16l25 1h8l-2 4-1 1-15 26-7 11c-1 0-10-2-13-1l6 3 8 1 14-23 6-11 5-9 1-3-71-3-5 10-8 15-2 2-6 13z" class="fil2" clip-rule="evenodd" image-rendering="optimizeQuality" shape-rendering="geometricPrecision" text-rendering="geometricPrecision"/>
    <path id="path5683" fill="#040404" fill-rule="evenodd" stroke-width="0" d="M136 157h-2l-2 1-4 2v8l2 4c2 2 11-2 13-3 3-1 4-2 6-5l-1-5-3-2c0-2 1-4-4-2l-5 2z" class="fil0" clip-rule="evenodd" image-rendering="optimizeQuality" shape-rendering="geometricPrecision" text-rendering="geometricPrecision"/>
    <path id="path5685" fill="#c8c8c6" fill-rule="evenodd" stroke-width="0" d="M46 143l64 12h7l6-3 18-7 12-5-23 8-12 4-6 1-33-6-13-2-13-2 20-6 10-2 8-2c2-1 2 0 2-2l-12 3-32 8-3 1z" class="fil2" clip-rule="evenodd" image-rendering="optimizeQuality" shape-rendering="geometricPrecision" text-rendering="geometricPrecision"/>
    <path id="path5687" fill="#b1b1ae" fill-rule="evenodd" stroke-width="0" d="M80 146l9 2 9 1c1-2 0-4-1-5l-2-1 2-3c1-2 0-3-1-4-2-2-5 2-8 1h-2c-2 2-6 1-6 2-1 1 1 1 1 3 1 1 0 2-1 3v1z" class="fil3" clip-rule="evenodd" image-rendering="optimizeQuality" shape-rendering="geometricPrecision" text-rendering="geometricPrecision"/>
    <path id="path5689" fill="#0589d2" fill-rule="evenodd" stroke-width="0" d="M71 149l-10-1-9-2v7c0 2 1 2 3 2l7 1c10 3 9 4 9-2v-5z" class="fil1" clip-rule="evenodd" image-rendering="optimizeQuality" shape-rendering="geometricPrecision" text-rendering="geometricPrecision"/>
    <path id="path5691" fill="#b1b1ae" fill-rule="evenodd" stroke-width="0" d="M126 123v-1l-1-1v-2l4-1 3-1h-4l-1 1-1-1h1l1-1h6l-6-1-6-1c-1 1-1 2-5 2-4 1-6-1-8 3v3l5 3h5l-1-2c0-1 0-2 2-2l1 3 1 2c3 1 4-2 4-3z" class="fil3" clip-rule="evenodd" image-rendering="optimizeQuality" shape-rendering="geometricPrecision" text-rendering="geometricPrecision"/>
    <path id="path5693" fill="#0589d2" fill-rule="evenodd" stroke-width="0" d="M88 157l4 1c2 2 2 3 2 5l11 1v-8l-15-3h-2v4z" class="fil1" clip-rule="evenodd" image-rendering="optimizeQuality" shape-rendering="geometricPrecision" text-rendering="geometricPrecision"/>
    <path id="path5695" fill="#c8c8c6" fill-rule="evenodd" stroke-width="0" d="M80 164c0 1 1 2-1 4 0 1-1 3-3 3l2-3c1-1 2-3 0-5-1-1-2 0-3-2-1 0-2-2-4-1l-2 5c0 4 3 8 8 7 3-1 4-4 5-6s0-2-2-2z" class="fil2" clip-rule="evenodd" image-rendering="optimizeQuality" shape-rendering="geometricPrecision" text-rendering="geometricPrecision"/>
    <path id="path5697" fill="#c8c8c6" fill-rule="evenodd" stroke-width="0" d="M143 159l3 1c1 3-3 6-5 7l-7 1c-2 0-2 0-2-2v-3l-2 3 1 4c2 1 8-1 10-1l3-2 2-1 1-2c1-2 0-7-4-5z" class="fil2" clip-rule="evenodd" image-rendering="optimizeQuality" shape-rendering="geometricPrecision" text-rendering="geometricPrecision"/>
    <path id="path5699" fill="#c8c8c6" fill-rule="evenodd" stroke-width="0" d="M134 167l6-2c4-2-1-3 0-4l1-1-1-1c1-1 4-1 3-3l-7 3h-2l-3 2v1l3-2c2-1 5 0 4 3-1 1-4 2-4 4z" class="fil2" clip-rule="evenodd" image-rendering="optimizeQuality" shape-rendering="geometricPrecision" text-rendering="geometricPrecision"/>
    <path id="path5701" fill="#c8c8c6" fill-rule="evenodd" stroke-width="0" d="M126 123c1-1 1-3 2-2v3l2-1c2-1 3-2 3-4l1-3h-5-1l-1 1h-1l1 1 1-1h4l-3 1-4 1v2l1 1v1z" class="fil2" clip-rule="evenodd" image-rendering="optimizeQuality" shape-rendering="geometricPrecision" text-rendering="geometricPrecision"/>
    <path id="path5703" fill="#0589d2" fill-rule="evenodd" stroke-width="0" d="M103 138l1-3 2-3-8-1c-1 3 3 7 5 7z" class="fil1" clip-rule="evenodd" image-rendering="optimizeQuality" shape-rendering="geometricPrecision" text-rendering="geometricPrecision"/>
    <path id="path5705" fill="#35a3d4" fill-rule="evenodd" stroke-width="0" d="M88 157l-1 3c0 2 4 2 6 2l1 1c0-2 0-3-2-5l-4-1z" clip-rule="evenodd" image-rendering="optimizeQuality" shape-rendering="geometricPrecision" text-rendering="geometricPrecision"/>
    <path id="path5707" fill="#c8c8c6" fill-rule="evenodd" stroke-width="0" d="M78 159v-4l2-1-1-1-3 3c0 2 1 3 2 3z" class="fil2" clip-rule="evenodd" image-rendering="optimizeQuality" shape-rendering="geometricPrecision" text-rendering="geometricPrecision"/>
  </g>
</svg>
