<svg xmlns="http://www.w3.org/2000/svg" id="svg4237" version="1.1" viewBox="0 0 210 297">
  <defs id="defs4231"/>
  <g id="layer1">
    <rect id="rect4244" width="12.1" height="23.9" x="141.2" y="155.8" fill="#fefefe" fill-rule="evenodd" stroke="#000" stroke-miterlimit="22.9" stroke-opacity="1" stroke-width="3.4" class="fil0 str0" clip-rule="evenodd" image-rendering="optimizeQuality" rx="3.5" ry="3.5" shape-rendering="geometricPrecision" text-rendering="geometricPrecision"/>
    <rect id="rect4246" width="12.1" height="23.9" x="69.8" y="155.8" fill="#fefefe" fill-rule="evenodd" stroke="#000" stroke-miterlimit="22.9" stroke-opacity="1" stroke-width="3.4" class="fil0 str0" clip-rule="evenodd" image-rendering="optimizeQuality" rx="3.5" ry="3.5" shape-rendering="geometricPrecision" text-rendering="geometricPrecision"/>
    <path id="path4248" fill="#666966" fill-rule="evenodd" stroke-width="0" d="M128 93h2l1 2v0-2h-3z" class="fil1" clip-rule="evenodd" image-rendering="optimizeQuality" shape-rendering="geometricPrecision" text-rendering="geometricPrecision"/>
    <path id="path4250" fill="#666966" fill-rule="evenodd" stroke-width="0" d="M128 108h3l1-1v-1h-1c1 0 0 0 0 0v1c1 1 1 1-1 1h-1z" class="fil1" clip-rule="evenodd" image-rendering="optimizeQuality" shape-rendering="geometricPrecision" text-rendering="geometricPrecision"/>
    <path id="path4252" fill="#666966" fill-rule="evenodd" stroke-width="0" d="M86 74h1l1-1h-1l-1 1z" class="fil1" clip-rule="evenodd" image-rendering="optimizeQuality" shape-rendering="geometricPrecision" text-rendering="geometricPrecision"/>
    <path id="path4254" fill="#666966" fill-rule="evenodd" stroke-width="0" d="M74 110l-1-1 1 1z" class="fil1" clip-rule="evenodd" image-rendering="optimizeQuality" shape-rendering="geometricPrecision" text-rendering="geometricPrecision"/>
    <path id="path4256" fill="#666966" fill-rule="evenodd" stroke-width="0" d="M122 143z" class="fil1" clip-rule="evenodd" image-rendering="optimizeQuality" shape-rendering="geometricPrecision" text-rendering="geometricPrecision"/>
    <path id="path4258" fill="#666966" fill-rule="evenodd" stroke-width="0" d="M125 127h1l-1-1v1z" class="fil1" clip-rule="evenodd" image-rendering="optimizeQuality" shape-rendering="geometricPrecision" text-rendering="geometricPrecision"/>
    <path id="path4260" fill="#d00" fill-rule="evenodd" stroke="#000" stroke-miterlimit="22.9" stroke-width="4.2" d="M71 84c-2 18 3 31 5 47l-9 2-4 1-2 1c-6 3-5 17-2 22 9 2 18 2 29 2 16 0 11 0 21 9 19-1 4-10 26-9 8 0 22-1 31-4l-1-17c-5-4-11-5-18-7 2-16 10-29 9-48-6-3-9-7-17-10-38-13-56 5-68 11z" clip-rule="evenodd" image-rendering="optimizeQuality" shape-rendering="geometricPrecision" text-rendering="geometricPrecision"/>
    <circle id="circle4262" cx="111.8" cy="133.2" r="16" class="fil0" fill="#fefefe" fill-rule="evenodd" stroke="#000" stroke-miterlimit="22.9" stroke-opacity="1" stroke-width="5.9" clip-rule="evenodd" image-rendering="optimizeQuality" shape-rendering="geometricPrecision" text-rendering="geometricPrecision"/>
    <rect id="rect4264" width="44.1" height="17.5" x="90.5" y="87.6" fill="#fefefe" fill-rule="evenodd" stroke="#000" stroke-miterlimit="22.9" stroke-opacity=".9" stroke-width="4.2" clip-rule="evenodd" image-rendering="optimizeQuality" rx="6" ry="6" class="fil0" shape-rendering="geometricPrecision" text-rendering="geometricPrecision"/>
    <circle id="circle4266" cx="111.8" cy="133.2" r="3.7" fill="#282829" fill-rule="evenodd" stroke="#373435" stroke-miterlimit="22.9" stroke-width=".2" clip-rule="evenodd" image-rendering="optimizeQuality" shape-rendering="geometricPrecision" text-rendering="geometricPrecision"/>
  </g>
</svg>
