<svg xmlns="http://www.w3.org/2000/svg" id="svg5483" version="1.1" viewBox="0 0 210 297">
  <defs id="defs5477"/>
  <g id="layer1">
    <path id="path5490" fill="#010101" fill-rule="evenodd" stroke-width="0" d="M66 137v2l2 1c0 1-1 1 1 3l2 2 3 3 4 4c2 2 1 2 0 3-1 3 3 4 4 5l3 2c2 1 4 4 6 2l2-2 3-2 5-4 14-13c5-3 6-7 8-4l1 3 2 3 1 1 1 2 4 5 4 5c-1 2-5 3-4 6 3 0 3 0 6-3l2-2c2-3-6-5-2-8l5-4c-1-1-2-1-2-3l3-1h3c6-3 2-7 6-9l4-1c2 0 1 4 4 6l2 1 3 1 1-7 1-7v-3c0-2 2-6-1-9-2-3-2-1-2-5s-2-3-2-5l1-2 1-3c1-4 4-3 4-7 0-3 1-4-1-6s-1-2-4 0l-6 5-3 5c-1 2-2 0-6 5l-4 3v1l-2 1-2 1-2 2c-4 3-5 2-6 8l-2 6c-2 6-2 4-7 8l-5 3h-1l-1 1-6 5-4 4-7 5-10 9-4-2c-6-3 2-4-2-7l-6-4-7-8-3-6-2-8c0-1 0-4 2-4l2 4 3 4 4 5 8 8 5 2 3 2h1c0 1 1 6 5 3l2-2c-2-4-7-4-6-7l1-2c0-4 2-2 4-2h2c2 1 6 3 9-2 3-4-2-8 1-10 2 0 1 1 1 3s3 7 7 6 7-6 3-11c-3-3-9-1-11-2v-4c1-3 1-1 5-4l3-1c2-2 3-2 2-7-1-2-1-3-4-4l-4-2c-1-1-3-4 0-5l3-1c3-2 3-5 1-6l-3-2-2-2c-1-1-2 0-2-3 1-4 5-6 7-10 2-2 3-5 0-6h-16l-3 1-7 2-4 1-6 2-7 3-7 1c-10 2-1 7-3 10l-2 3-1 3c-2 3-6 9-5 12l2 7c3 10 8 2 8 9-3 2-1 1-3 4-3 3-1 8 0 12l1 3 1 2z" class="fil0" clip-rule="evenodd" image-rendering="optimizeQuality" shape-rendering="geometricPrecision" text-rendering="geometricPrecision"/>
    <path id="path5492" fill="#fff" fill-rule="evenodd" stroke-width="0" d="M71 77l-1-3-2 1c-2 3 1 5 0 8l-1 2-1 2-1 2-2 3c-1 3-3 5-3 10l2 5c1 1 2 2 5 2s3 7 4 10c2 5 10 15 16 18 1 1 2 3 4 3l1-2-3-3-7-7-2-2-4-5-3-7-2-7v-4c0-4-3-3 1-8l1-1c1-2 2-4 5-2l5 4c1 2-1 3-2 2 0 0-3-4-5-3l-3 2c-1 3 0 5 1 7 0 2 0 5 2 8 0 1 1 2 2 1l2-1 1 1v3h-4l2 6c2 1 2 0 2-1l2 1c1 2 0 4 5 8 4 3 8 0 12 1l5 2c2 0 3-2 4-3l-1-6h-2l-1 2-5 2c-1 0-4 2-4 0-1-2 2-1 4-2l4-2 3-4c1-2 0-4-1-6l-1-1-1-3c2 0 4 3 4 5l1 2 1-1c1-2-1-4 1-5 3-3 10-2 9-7-1-3-2-3-5-4l-4-4c-1-4 1-5-4-7l-3-1c-3-2-3 3-6 1l2-4 5-1 3 2 3 2c1 1 3 2 4 1 2-1 3-2 1-3-3-1-4-3-8-3h-2l-2-1-10-1h-5l-4-1c-4-1-12-1-14-3z" class="fil1" clip-rule="evenodd" image-rendering="optimizeQuality" shape-rendering="geometricPrecision" text-rendering="geometricPrecision"/>
    <path id="path5494" fill="#009dfe" fill-rule="evenodd" stroke-width="0" d="M132 164c-1-3 3-4 4-6l-4-5-4-5-1-2-1-1-2-3-1-3c-2-3-3 1-8 4l-14 13-5 4-3 2-2 2c-2 2-4-1-6-2l-3-2c-1-1-5-2-4-5 1-1 2-1 0-3l-4-4-3-3-2-2c-2-2-1-2-1-3l-2-1v-2l-8 5-2 2-1 2v19l-1 6v6h22l23-1h22l3-3 8-9z" class="fil2" clip-rule="evenodd" image-rendering="optimizeQuality" shape-rendering="geometricPrecision" text-rendering="geometricPrecision"/>
    <path id="path5496" fill="#fff" fill-rule="evenodd" stroke-width="0" d="M164 133v-5c0-3 1-4-5-5h-4l-3-1c-1-4 10-1 11-2l1-4h-14c0-2 4-3 6-3h6v-3c0-3-2-2-4-1h-3c-2 0-6 2-5-1 1-2 3-2 5-2 4-1 4-2 6-5l2-2c0-2 0-4 2-5l1-2v-3c-2 0-7 8-9 10l-2 1-7 7-2 2-5 4c-3 1-4 1-5 4l-1 3-1 4-1 3c-1 2-3 4-1 6l4 6c2 2 4 1 6 1 5-2 4-1 6-5l1-2c1-1 1-6 4-4 1 1 2 2 3 1 3-1 4-3 5 3l1 3c2 0 2-2 2-3z" class="fil1" clip-rule="evenodd" image-rendering="optimizeQuality" shape-rendering="geometricPrecision" text-rendering="geometricPrecision"/>
    <path id="path5498" fill="#009dfe" fill-rule="evenodd" stroke-width="0" d="M107 145l-7-10h2-2c-2 0-4-2-4 2l-1 2c-1 3 4 3 6 7l-2 2c-4 3-5-2-5-3h-1l-3-2-5-2-8-8-4-5-3-4-2-4c-2 0-2 3-2 4l2 8 3 6 7 8 6 4c4 3-4 4 2 7l4 2 10-9 7-5z" class="fil2" clip-rule="evenodd" image-rendering="optimizeQuality" shape-rendering="geometricPrecision" text-rendering="geometricPrecision"/>
    <path id="path5500" fill="#009dfe" fill-rule="evenodd" stroke-width="0" d="M70 74l1 3c0-2 1-2 3-1h4l17 2 8 1v-2c0-4-4 0-6-1v-1l3-2 3-1 8-1 3-3 2-2h-6l-12 2h-3l-3 1-5 2-5 1-3 1-2 1h-7z" class="fil2" clip-rule="evenodd" image-rendering="optimizeQuality" shape-rendering="geometricPrecision" text-rendering="geometricPrecision"/>
    <path id="path5502" fill="#fff" fill-rule="evenodd" stroke-width="0" d="M128 133l-3 2v2l5 7 1 2c1 1 2 4 4 3l1-1 1-1c2-1 0-3-1-4l-5-6-3-4z" class="fil1" clip-rule="evenodd" image-rendering="optimizeQuality" shape-rendering="geometricPrecision" text-rendering="geometricPrecision"/>
    <path id="path5504" fill="#010101" fill-rule="evenodd" stroke-width="0" d="M104 97l2 2c0 1 0 2-2 1-2 0-4-2-6-1-1 3 7 4 8 4l3-1v-8l-1-3-1 1v1l-1 2-2 2z" class="fil0" clip-rule="evenodd" image-rendering="optimizeQuality" shape-rendering="geometricPrecision" text-rendering="geometricPrecision"/>
    <path id="path5506" fill="#010101" fill-rule="evenodd" stroke-width="0" d="M88 98c2 1 2 0 3-2l2-2c1-2-1-3-2-2l-3 3c-1-3 2-4 3-5l-1-3c-2 0-2 1-2 2l-1 1-1 1-1 3 2 2 1 2z" class="fil0" clip-rule="evenodd" image-rendering="optimizeQuality" shape-rendering="geometricPrecision" text-rendering="geometricPrecision"/>
    <path id="path5508" fill="#010101" fill-rule="evenodd" stroke-width="0" d="M79 109c1-2-1-3 1-4l2-2c0-2-3-2-4-4l-1-1c-1-1-2 1-1 2s3 2 2 3-2 1-1 3l2 3z" class="fil0" clip-rule="evenodd" image-rendering="optimizeQuality" shape-rendering="geometricPrecision" text-rendering="geometricPrecision"/>
    <path id="path5510" fill="#fff" fill-rule="evenodd" stroke-width="0" d="M118 123c-2 0-2 2-2 4 0 1 2 3 4 2l2-2c1-2-2-5-4-4z" class="fil1" clip-rule="evenodd" image-rendering="optimizeQuality" shape-rendering="geometricPrecision" text-rendering="geometricPrecision"/>
    <path id="path5512" fill="#009dfe" fill-rule="evenodd" stroke-width="0" d="M107 80l2-1 1-4c-2 0-2 1-3 2v3z" class="fil2" clip-rule="evenodd" image-rendering="optimizeQuality" shape-rendering="geometricPrecision" text-rendering="geometricPrecision"/>
    <path id="path5514" fill="#010101" fill-rule="evenodd" stroke-width="0" d="M85 89h1v-4l-1 4z" class="fil0" clip-rule="evenodd" image-rendering="optimizeQuality" shape-rendering="geometricPrecision" text-rendering="geometricPrecision"/>
  </g>
</svg>
