<?xml version="1.0" encoding="UTF-8" standalone="no"?>
<!-- Generator: Adobe Illustrator 23.0.2, SVG Export Plug-In . SVG Version: 6.00 Build 0)  -->

<svg
   xmlns:dc="http://purl.org/dc/elements/1.1/"
   xmlns:cc="http://creativecommons.org/ns#"
   xmlns:rdf="http://www.w3.org/1999/02/22-rdf-syntax-ns#"
   xmlns:svg="http://www.w3.org/2000/svg"
   xmlns="http://www.w3.org/2000/svg"
   xmlns:sodipodi="http://sodipodi.sourceforge.net/DTD/sodipodi-0.dtd"
   xmlns:inkscape="http://www.inkscape.org/namespaces/inkscape"
   version="1.1"
   id="Layer_1"
   x="0px"
   y="0px"
   viewBox="0 0 62.850159 133.63138"
   xml:space="preserve"
   sodipodi:docname="bishop.svg"
   inkscape:label="light"
   width="62.850159"
   height="133.63138"
   inkscape:version="0.92.4 (5da689c313, 2019-01-14)"><metadata
   id="metadata29"><rdf:RDF><cc:Work
       rdf:about=""><dc:format>image/svg+xml</dc:format><dc:type
         rdf:resource="http://purl.org/dc/dcmitype/StillImage" /><dc:title></dc:title></cc:Work></rdf:RDF></metadata><defs
   id="defs27" /><sodipodi:namedview
   pagecolor="#ffffff"
   bordercolor="#666666"
   borderopacity="1"
   objecttolerance="10"
   gridtolerance="10"
   guidetolerance="10"
   inkscape:pageopacity="0"
   inkscape:pageshadow="2"
   inkscape:window-width="1920"
   inkscape:window-height="1017"
   id="namedview25"
   showgrid="false"
   inkscape:zoom="4.0571429"
   inkscape:cx="34.261276"
   inkscape:cy="71.414329"
   inkscape:window-x="-8"
   inkscape:window-y="-8"
   inkscape:window-maximized="1"
   inkscape:current-layer="Layer_1" />
<path
   style="fill:#2e2e30"
   d="m 23.015641,52.561277 c -8.39,-5.53 -11.24,-12.48 -9.24,-22.42 1.32,-6.54 3.54,-12.72 7.06,-18.41 1.29,-2.0800002 2.8,-3.9600002 4.64,-5.5900002 1,-0.89 3.09,-1.3 1.54,-3.44 -0.33,-0.46 0.23,-1.08 0.66,-1.51 1.58,-1.58000001 5.87,-1.59000001 7.48,-0.02 0.5,0.49 1.11,1.22 0.69,1.73 -1.47,1.77 0.23,2.12 1.1,2.91 0.93,0.84 1.91,1.66 2.67,2.65 6.14,8.0000002 9.51,17.1000002 10.01,27.1200002 0.34,6.88 -2.8,12.27 -8.5,16.13 -0.85,0.57 -1.74,0.96 -1.51,2.26 0.24,1.39 1.31,0.62 1.98,0.87 0.23,0.09 0.65,0.18 0.65,0.28 -0.01,2.21 2.32,3.12 2.81,4.96 0.52,1.93 -0.6,3.21 -2.72,3.02 -2.24,-0.2 -2.79,0.5 -2.66,2.73 0.62,10.8 1.45,21.55 4.46,32.02 0.52,1.82 1.11,2.880003 3.33,2.700003 2.5,-0.2 2.51,0.47 2.45,2.93 -0.05,2.23 -0.87,4.75 2.02,6.57 2.94,1.84 5.33,4.56 7.94,6.92 3.67,3.32 3.65,5.33 -0.15,8.73 0.41,0.23 0.79,0.44 1.15,0.66 1.71,1.07 2.35,2.65 1.76,4.53 -0.55,1.76 -1.85,2.72 -3.78,2.72 -4.94,-0.01 -9.89,0 -14.83,0 -13.07,0 -26.15,-0.02 -39.22,0.02 -2.39,0.01 -4.21,-0.72 -4.71,-3.18 -0.47,-2.34 0.83,-3.79 3.07,-4.66 -0.24,-0.26 -0.41,-0.5 -0.63,-0.7 -2.97,-2.6 -3.06,-4.84 -0.13,-7.56 3.19,-2.97 6.49,-5.81 9.73,-8.72 0.74,-0.67 1.6,-1.07 0.78,-2.58 -0.59,-1.1 0.11,-2.81 -0.15,-4.31 -0.17,-0.99 0.98,-1.21 1.86,-1.06 2.48,0.43 3.48,-0.78 4.12,-3.080003 3.03,-10.81 4,-21.88 4.39,-33.03 0.08,-2.31 -1.47,-1.47 -2.52,-1.57 -0.99,-0.1 -2.1,0.17 -2.56,-1.06 -0.39,-1.05 -0.59,-2.82 0.13,-3.06 2.14,-0.71 1.59,-2.65 2.36,-3.95 0.54,-0.39 1.27,-0.49 1.49,0.14 0.65,1.82 2.11,1.61 3.5,1.6 3.3,-0.02 6.61,0.1 10.27,-0.1 -0.72,-1.02 -1.48,-0.9 -2.13,-0.92 -2.25,-0.05 -4.49,0 -6.74,-0.03 -3.37,-0.03 -3.37,-0.04 -3.92,-3.24 z"
   id="path2"
   inkscape:label="main"
   inkscape:connector-curvature="0" />









<g
   id="g4551"
   style="opacity:0.47300002;fill:#ffffff;fill-opacity:1"
   inkscape:label="light"
   transform="translate(-288.68436,-78.428723)"><path
     id="path4"
     d="m 311.7,130.99 c 0.33,2.46 1.84,2.84 4.07,2.65 2.66,-0.23 5.36,-0.05 8.04,-0.05 0.99,0 1.95,0.13 1.92,1.4 -0.03,1.26 -1.06,1.07 -1.87,1.07 -3.77,0.02 -7.54,0.01 -11.31,0.01 -1.36,0 -2.89,0.25 -2.2,-2.08 0.2,-0.69 -0.71,-0.35 -1.12,-0.45 0.83,-0.84 3.22,-0.17 2.47,-2.55 z"
     style="fill:#ffffff;fill-opacity:1"
     inkscape:connector-curvature="0" /><path
     id="path6"
     d="m 307.48,123.36 c -2.73,-3.16 -3.69,-6.93 -3.25,-10.9 0.94,-8.52 3.56,-16.49 8.8,-23.41 4.38,-5.78 9.47,-5.95 14.22,-0.58 4.44,5.01 4.41,5.18 -1.17,8.81 -3.3,2.14 -6.6,4.28 -9.6,6.84 -5.88,5.04 -9.84,10.95 -9,19.24 z"
     style="fill:#ffffff;fill-opacity:1"
     inkscape:connector-curvature="0" /><path
     id="path8"
     d="m 294.8,198.29 c 3.27,-3.58 6.4,-7.01 9.54,-10.45 0.59,-0.65 1.38,-0.49 2.12,-0.49 7.28,0.02 14.56,0.1 21.83,0.06 1.42,-0.01 2.13,0.42 2.46,1.81 0.61,2.6 1.33,5.17 2.02,7.75 0.27,0.99 0.42,1.81 -1.07,1.8 -11.96,-0.06 -23.92,-0.09 -35.88,-0.14 -0.23,0.01 -0.44,-0.14 -1.02,-0.34 z"
     style="fill:#ffffff;fill-opacity:1"
     inkscape:connector-curvature="0" /><path
     id="path10"
     d="m 316.28,176.81 c -5.04,0 -4.99,0.01 -3.91,-4.83 1.32,-5.9 1.81,-11.9 1.91,-17.94 0.05,-2.76 0.29,-5.52 0.28,-8.28 -0.01,-1.53 0.69,-1.79 2,-1.77 5.03,0.09 4.01,-0.39 4.17,3.88 0.32,8.7 0.56,17.41 0.95,26.11 0.1,2.09 -0.26,3.23 -2.64,2.85 -0.89,-0.14 -1.83,-0.02 -2.76,-0.02 z"
     style="fill:#ffffff;fill-opacity:1"
     inkscape:connector-curvature="0" /><path
     id="path12"
     d="m 314.55,210.05 c -6.62,0 -13.23,0.01 -19.85,-0.01 -0.75,0 -1.53,0.03 -2.24,-0.16 -1.05,-0.27 -1.8,-0.99 -1.82,-2.12 -0.02,-1.15 0.74,-1.86 1.76,-2.18 0.62,-0.19 1.32,-0.18 1.99,-0.18 13.49,-0.01 26.97,0 40.46,0 0.25,0 0.5,0 0.75,0.01 1.61,0.03 2.89,0.57 2.85,2.41 -0.04,1.7 -1.28,2.2 -2.78,2.21 -2.68,0.02 -5.36,0.01 -8.04,0.01 -4.37,0.01 -8.72,0.01 -13.08,0.01 z"
     style="fill:#ffffff;fill-opacity:1"
     inkscape:connector-curvature="0" /><path
     id="path14"
     d="m 316.45,129.67 c 10.57,-0.97 16.37,-6.32 18.74,-17.01 1.7,3.08 0.32,9.22 -2.93,12.99 -3.79,4.4 -10.33,6.16 -15.81,4.02 z"
     style="fill:#ffffff;fill-opacity:1"
     inkscape:connector-curvature="0" /><path
     id="path16"
     d="m 317.35,140.28 c -2.41,0 -4.83,0.03 -7.24,-0.01 -1.09,-0.02 -1.97,-0.38 -1.9,-1.76 0.08,-1.42 1.04,-1.49 2.11,-1.48 4.58,0.01 9.17,0.03 13.75,-0.01 1.19,-0.01 2.02,0.37 1.98,1.64 -0.03,1.16 -0.71,1.79 -1.95,1.77 -2.25,-0.03 -4.5,-0.01 -6.75,-0.01 0,-0.05 0,-0.09 0,-0.14 z"
     style="fill:#ffffff;fill-opacity:1"
     inkscape:connector-curvature="0" /><path
     id="path18"
     d="m 314.76,181.78 c -3.09,0 -6.18,0 -9.27,0 -0.83,0 -1.87,0.12 -1.97,-1.01 -0.11,-1.28 1.01,-1.06 1.79,-1.08 6.25,-0.11 12.51,-0.2 18.76,-0.28 0.91,-0.01 2.1,-0.13 2.17,1.1 0.08,1.52 -1.27,1.25 -2.21,1.26 -3.09,0.03 -6.18,0.01 -9.27,0.01 z"
     style="fill:#ffffff;fill-opacity:1"
     inkscape:connector-curvature="0" /><path
     id="path20"
     d="m 314.34,184.87 c -3.01,0 -6.02,0.01 -9.03,-0.01 -0.8,-0.01 -1.91,0.19 -1.98,-0.97 -0.07,-1.21 1.04,-1.08 1.85,-1.08 6.02,-0.01 12.04,-0.01 18.07,0 0.8,0 1.93,-0.17 1.95,0.99 0.03,1.43 -1.25,1.03 -2.07,1.05 -2.93,0.05 -5.86,0.02 -8.79,0.02 z"
     style="fill:#ffffff;fill-opacity:1"
     inkscape:connector-curvature="0" /><path
     id="path22"
     d="m 319.72,80.34 c -0.81,0.55 -1.49,0.57 -2.48,-0.18 1,-0.6 1.68,-0.85 2.48,0.18 z"
     style="fill:#ffffff;fill-opacity:1"
     inkscape:connector-curvature="0" /></g>
</svg>