<?xml version="1.0" encoding="utf-8"?>
<!-- Generator: Adobe Illustrator 23.0.2, SVG Export Plug-In . SVG Version: 6.00 Build 0)  -->
<svg version="1.1" id="Layer_1" xmlns="http://www.w3.org/2000/svg" xmlns:xlink="http://www.w3.org/1999/xlink" x="0px" y="0px"
	 viewBox="0 0 560 288" style="enable-background:new 0 0 560 288;" xml:space="preserve">
<path style="fill:#2E2E30;" d="M311.7,130.99c-8.39-5.53-11.24-12.48-9.24-22.42c1.32-6.54,3.54-12.72,7.06-18.41
	c1.29-2.08,2.8-3.96,4.64-5.59c1-0.89,3.09-1.3,1.54-3.44c-0.33-0.46,0.23-1.08,0.66-1.51c1.58-1.58,5.87-1.59,7.48-0.02
	c0.5,0.49,1.11,1.22,0.69,1.73c-1.47,1.77,0.23,2.12,1.1,2.91c0.93,0.84,1.91,1.66,2.67,2.65c6.14,8,9.51,17.1,10.01,27.12
	c0.34,6.88-2.8,12.27-8.5,16.13c-0.85,0.57-1.74,0.96-1.51,2.26c0.24,1.39,1.31,0.62,1.98,0.87c0.23,0.09,0.65,0.18,0.65,0.28
	c-0.01,2.21,2.32,3.12,2.81,4.96c0.52,1.93-0.6,3.21-2.72,3.02c-2.24-0.2-2.79,0.5-2.66,2.73c0.62,10.8,1.45,21.55,4.46,32.02
	c0.52,1.82,1.11,2.88,3.33,2.7c2.5-0.2,2.51,0.47,2.45,2.93c-0.05,2.23-0.87,4.75,2.02,6.57c2.94,1.84,5.33,4.56,7.94,6.92
	c3.67,3.32,3.65,5.33-0.15,8.73c0.41,0.23,0.79,0.44,1.15,0.66c1.71,1.07,2.35,2.65,1.76,4.53c-0.55,1.76-1.85,2.72-3.78,2.72
	c-4.94-0.01-9.89,0-14.83,0c-13.07,0-26.15-0.02-39.22,0.02c-2.39,0.01-4.21-0.72-4.71-3.18c-0.47-2.34,0.83-3.79,3.07-4.66
	c-0.24-0.26-0.41-0.5-0.63-0.7c-2.97-2.6-3.06-4.84-0.13-7.56c3.19-2.97,6.49-5.81,9.73-8.72c0.74-0.67,1.6-1.07,0.78-2.58
	c-0.59-1.1,0.11-2.81-0.15-4.31c-0.17-0.99,0.98-1.21,1.86-1.06c2.48,0.43,3.48-0.78,4.12-3.08c3.03-10.81,4-21.88,4.39-33.03
	c0.08-2.31-1.47-1.47-2.52-1.57c-0.99-0.1-2.1,0.17-2.56-1.06c-0.39-1.05-0.59-2.82,0.13-3.06c2.14-0.71,1.59-2.65,2.36-3.95
	c0.54-0.39,1.27-0.49,1.49,0.14c0.65,1.82,2.11,1.61,3.5,1.6c3.3-0.02,6.61,0.1,10.27-0.1c-0.72-1.02-1.48-0.9-2.13-0.92
	c-2.25-0.05-4.49,0-6.74-0.03C312.25,134.2,312.25,134.19,311.7,130.99z"/>
<path style="fill:#888B8F;" d="M311.7,130.99c0.33,2.46,1.84,2.84,4.07,2.65c2.66-0.23,5.36-0.05,8.04-0.05
	c0.99,0,1.95,0.13,1.92,1.4c-0.03,1.26-1.06,1.07-1.87,1.07c-3.77,0.02-7.54,0.01-11.31,0.01c-1.36,0-2.89,0.25-2.2-2.08
	c0.2-0.69-0.71-0.35-1.12-0.45C310.06,132.7,312.45,133.37,311.7,130.99z"/>
<path style="fill:#8B8E93;" d="M307.48,123.36c-2.73-3.16-3.69-6.93-3.25-10.9c0.94-8.52,3.56-16.49,8.8-23.41
	c4.38-5.78,9.47-5.95,14.22-0.58c4.44,5.01,4.41,5.18-1.17,8.81c-3.3,2.14-6.6,4.28-9.6,6.84
	C310.6,109.16,306.64,115.07,307.48,123.36z"/>
<path style="fill:#8B8E93;" d="M294.8,198.29c3.27-3.58,6.4-7.01,9.54-10.45c0.59-0.65,1.38-0.49,2.12-0.49
	c7.28,0.02,14.56,0.1,21.83,0.06c1.42-0.01,2.13,0.42,2.46,1.81c0.61,2.6,1.33,5.17,2.02,7.75c0.27,0.99,0.42,1.81-1.07,1.8
	c-11.96-0.06-23.92-0.09-35.88-0.14C295.59,198.64,295.38,198.49,294.8,198.29z"/>
<path style="fill:#8B8E93;" d="M316.28,176.81c-5.04,0-4.99,0.01-3.91-4.83c1.32-5.9,1.81-11.9,1.91-17.94
	c0.05-2.76,0.29-5.52,0.28-8.28c-0.01-1.53,0.69-1.79,2-1.77c5.03,0.09,4.01-0.39,4.17,3.88c0.32,8.7,0.56,17.41,0.95,26.11
	c0.1,2.09-0.26,3.23-2.64,2.85C318.15,176.69,317.21,176.81,316.28,176.81z"/>
<path style="fill:#8C8F94;" d="M314.55,210.05c-6.62,0-13.23,0.01-19.85-0.01c-0.75,0-1.53,0.03-2.24-0.16
	c-1.05-0.27-1.8-0.99-1.82-2.12c-0.02-1.15,0.74-1.86,1.76-2.18c0.62-0.19,1.32-0.18,1.99-0.18c13.49-0.01,26.97,0,40.46,0
	c0.25,0,0.5,0,0.75,0.01c1.61,0.03,2.89,0.57,2.85,2.41c-0.04,1.7-1.28,2.2-2.78,2.21c-2.68,0.02-5.36,0.01-8.04,0.01
	C323.26,210.05,318.91,210.05,314.55,210.05z"/>
<path style="fill:#8A8D92;" d="M316.45,129.67c10.57-0.97,16.37-6.32,18.74-17.01c1.7,3.08,0.32,9.22-2.93,12.99
	C328.47,130.05,321.93,131.81,316.45,129.67z"/>
<path style="fill:#898C90;" d="M317.35,140.28c-2.41,0-4.83,0.03-7.24-0.01c-1.09-0.02-1.97-0.38-1.9-1.76
	c0.08-1.42,1.04-1.49,2.11-1.48c4.58,0.01,9.17,0.03,13.75-0.01c1.19-0.01,2.02,0.37,1.98,1.64c-0.03,1.16-0.71,1.79-1.95,1.77
	c-2.25-0.03-4.5-0.01-6.75-0.01C317.35,140.37,317.35,140.33,317.35,140.28z"/>
<path style="fill:#85878C;" d="M314.76,181.78c-3.09,0-6.18,0-9.27,0c-0.83,0-1.87,0.12-1.97-1.01c-0.11-1.28,1.01-1.06,1.79-1.08
	c6.25-0.11,12.51-0.2,18.76-0.28c0.91-0.01,2.1-0.13,2.17,1.1c0.08,1.52-1.27,1.25-2.21,1.26
	C320.94,181.8,317.85,181.78,314.76,181.78z"/>
<path style="fill:#8A8D92;" d="M314.34,184.87c-3.01,0-6.02,0.01-9.03-0.01c-0.8-0.01-1.91,0.19-1.98-0.97
	c-0.07-1.21,1.04-1.08,1.85-1.08c6.02-0.01,12.04-0.01,18.07,0c0.8,0,1.93-0.17,1.95,0.99c0.03,1.43-1.25,1.03-2.07,1.05
	C320.2,184.9,317.27,184.87,314.34,184.87z"/>
<path style="fill:#838286;" d="M319.72,80.34c-0.81,0.55-1.49,0.57-2.48-0.18C318.24,79.56,318.92,79.31,319.72,80.34z"/>
</svg>
