<?xml version="1.0" encoding="utf-8"?>
<!-- Generator: Adobe Illustrator 23.0.2, SVG Export Plug-In . SVG Version: 6.00 Build 0)  -->
<svg version="1.1" id="Layer_1" xmlns="http://www.w3.org/2000/svg" xmlns:xlink="http://www.w3.org/1999/xlink" x="0px" y="0px"
	 viewBox="0 0 560 288" style="enable-background:new 0 0 560 288;" xml:space="preserve">
<path style="fill:#2E2E30;" d="M107.69,203.73c0.64,0.41,1.33,0.73,1.89,1.21c1.34,1.15,1.73,2.66,1.19,4.32
	c-0.5,1.55-1.61,2.53-3.28,2.73c-0.58,0.07-1.17,0.05-1.76,0.05c-18.35,0-36.71-0.01-55.06,0.03c-2.4,0.01-4.44-0.45-5.07-3.05
	c-0.61-2.51,0.6-4.2,3.21-5.16c-1.54-1.35-3.21-2.51-3.12-4.63c0.1-2.33,1.83-3.66,3.39-5.05c3.06-2.73,6.13-5.46,9.19-8.2
	c0.68-0.61,1.35-0.88,0.69-2.31c-0.64-1.37-0.15-3.33-0.13-5.01c0.01-1.07,1.44-1.33,2.47-1.16c2.32,0.38,3.09-0.78,3.68-2.85
	c3.51-12.28,4.32-24.88,4.68-37.53c0.08-2.93-0.13-5.88,0.09-8.8c0.18-2.36-0.66-3-2.91-2.83c-2.44,0.18-3.46-1.09-2.71-3.39
	c0.57-1.76,2.8-2.68,2.76-4.88c0-0.1,0.59-0.35,0.88-0.31c1.63,0.23,1.79-0.72,1.68-1.97c-0.11-1.2,0.59-2.84-1.75-2.66
	c-0.84,0.06-1.33-0.68-1.42-1.5c-0.08-0.73-0.18-1.63,0.78-1.88c1.59-0.42,0.86-1.2,0.41-1.99c-2.31-4.07-4.43-8.28-6.98-12.2
	c-4.6-7.08-6.09-15.14-7.83-23.16c-0.39-1.78-0.78-3.55-1.28-5.84c2.07,1.55,3.81,2.7,5.35,4.08c1.18,1.06,2.11,0.95,3.29,0.12
	c1.09-0.77,2.37-1.27,3.43-2.07c2.47-1.85,4.91-2.84,7.66,0.05c0.7-4.26,2.51-7.14,6.9-7.19c3.08-0.03,4.98,1.91,6.43,6.33
	c2.1-1.99,4.16-1.09,5.95,0.3c4.69,3.66,9.05,3.72,13.2-0.81c0.21-0.23,0.54-0.36,1.27-0.83c-2.39,9.23-2.92,18.5-7.61,26.62
	c-2.72,4.71-5.38,9.46-8.07,14.18c-0.49,0.86-1.48,1.66,0.3,2.37c0.76,0.31,0.85,1.36,0.55,2.24c-0.27,0.82-0.79,1.28-1.67,1.21
	c-2.14-0.18-1.34,1.43-1.41,2.4c-0.07,0.99-0.47,2.36,1.41,2.17c0.31-0.03,0.93,0.14,0.93,0.17c-0.29,2.7,3.25,3.36,3.14,5.99
	c-0.08,1.95-1,2.78-2.87,2.47c-2.3-0.37-2.89,0.53-2.88,2.82c0.02,14.09,0.41,28.15,3.62,41.96c0.26,1.14,0.66,2.25,0.88,3.4
	c0.47,2.5,1.23,4.33,4.47,3.87c1.7-0.24,2.13,0.93,1.98,2.82c-0.18,2.24-1.16,4.76,1.6,6.72c3.13,2.21,5.82,5.04,8.67,7.63
	C111.75,198.19,111.69,200.42,107.69,203.73z"/>
<g>
	<path style="fill:#84878B;" d="M90.1,198.02c1.56,0.01,1.59-0.62,1.27-1.8c-0.72-2.66-1.43-5.33-2.03-8.02
		c-0.32-1.4-1.03-1.83-2.45-1.83c-7.7,0.04-15.41-0.03-23.11-0.05c-0.73,0-1.48-0.15-2.1,0.53c-3.23,3.58-6.5,7.14-10.15,11.14
		C64.82,197.99,77.46,197.96,90.1,198.02z"/>
	<path style="fill:#84878B;" d="M74.45,175.29c0.5,0,1,0,1.51,0c3.84-0.01,3.89-0.01,3.77-3.87c-0.43-13.21-0.93-26.41-1.36-39.62
		c-0.13-4.06-0.08-3.99-4.13-3.92c-1.42,0.03-1.93,0.47-1.9,1.88c0.05,3.18-0.04,6.36-0.03,9.54c0.02,10.37-0.01,20.74-2.1,30.97
		C69.19,175.28,69.21,175.29,74.45,175.29z"/>
	<path style="fill:#84878B;" d="M63.82,96.46c2.04,2.75,3.88,5.66,5.56,8.64c1.23,2.18,2.79,2.83,5.18,2.06
		c-6.53-11.77-9.6-24.29-8.51-38.02c-1.71,0.98-3.34,1.8-4.84,2.8c-1.19,0.79-2.08,0.64-3.12-0.23c-1.32-1.11-2.74-2.1-4.71-3.6
		c0.54,2.31,0.9,3.9,1.29,5.49C56.64,81.65,58.75,89.63,63.82,96.46z"/>
	<path style="fill:#84878B;" d="M94.31,205.01c-0.41-0.06-0.84-0.01-1.25-0.01c-13.73,0-27.46,0-41.2,0c-0.75,0-1.54-0.07-2.25,0.13
		c-1.19,0.34-2.1,1.1-2.09,2.48c0,1.43,0.99,2.06,2.22,2.3c0.73,0.14,1.5,0.08,2.25,0.08c6.78,0,13.56,0,20.35,0
		c7.28,0,14.57,0.01,21.85-0.01c1.6-0.01,3.16-0.38,3.2-2.37C97.43,205.65,95.86,205.26,94.31,205.01z"/>
	<path style="fill:#84878B;" d="M82.44,120.87c-2.43,0.02-4.85,0.01-7.28,0.01c0,0,0-0.01,0-0.01c-2.34,0-4.69,0.01-7.03,0
		c-1.14-0.01-2.28-0.04-2.35,1.52c-0.08,1.67,1.14,1.9,2.36,1.91c4.77,0.04,9.54,0.01,14.31,0.04c1.23,0.01,1.89-0.49,1.91-1.76
		C84.38,121.24,83.63,120.86,82.44,120.87z"/>
	<path style="fill:#84878B;" d="M62.61,181.43c-0.85,0-1.87,0.01-1.9,1.13c-0.04,1.34,1.11,1.22,2.01,1.23
		c3.09,0.02,6.18,0.01,9.27,0.01c3.17,0,6.35,0.01,9.52-0.01c0.89-0.01,2.1,0.2,2.17-1.07c0.06-1.26-1.12-1.27-2.03-1.27
		C75.31,181.42,68.96,181.42,62.61,181.43z"/>
	<path style="fill:#84878B;" d="M82.8,178.21c-6.7,0-13.4,0.01-20.1,0.04c-0.81,0-1.91-0.12-1.8,1.12c0.1,1.15,1.18,0.97,1.99,0.97
		c3.18,0.02,6.37,0.01,9.55,0c3.43,0,6.87,0.01,10.3-0.01c0.81,0,1.9,0.14,1.93-1.03C84.7,178.12,83.62,178.21,82.8,178.21z"/>
	<path style="fill:#84878B;" d="M69.29,117.37c-0.88,0-1.51,0.36-1.5,1.28c0,0.94,0.66,1.24,1.53,1.24c4.42,0,8.85,0,13.27,0.01
		c0.92,0,1.46-0.47,1.5-1.32c0.05-0.98-0.69-1.21-1.53-1.21c-2.17,0-4.34,0-6.51,0C73.8,117.37,71.55,117.38,69.29,117.37z"/>
	<path style="fill:#84878B;" d="M67.69,110.1c-0.02,1.03,0.77,1.18,1.55,1.19c1.75,0.02,3.5,0.01,5.25,0.01c1.75,0,3.5,0.02,5.25,0
		c0.81-0.01,1.55-0.22,1.5-1.24c-0.04-0.85-0.72-1.08-1.42-1.08c-3.58-0.02-7.17-0.01-10.75,0.01
		C68.37,108.99,67.71,109.24,67.69,110.1z"/>
</g>
</svg>
