<?xml version="1.0" encoding="UTF-8" standalone="no"?>
<!-- Generator: Adobe Illustrator 23.0.2, SVG Export Plug-In . SVG Version: 6.00 Build 0)  -->

<svg
   xmlns:dc="http://purl.org/dc/elements/1.1/"
   xmlns:cc="http://creativecommons.org/ns#"
   xmlns:rdf="http://www.w3.org/1999/02/22-rdf-syntax-ns#"
   xmlns:svg="http://www.w3.org/2000/svg"
   xmlns="http://www.w3.org/2000/svg"
   xmlns:sodipodi="http://sodipodi.sourceforge.net/DTD/sodipodi-0.dtd"
   xmlns:inkscape="http://www.inkscape.org/namespaces/inkscape"
   version="1.1"
   id="Layer_1"
   x="0px"
   y="0px"
   viewBox="0 0 65.560051 151.3705"
   xml:space="preserve"
   sodipodi:docname="king.svg"
   width="65.560051"
   height="151.3705"
   inkscape:version="0.92.4 (5da689c313, 2019-01-14)"><metadata
   id="metadata4609"><rdf:RDF><cc:Work
       rdf:about=""><dc:format>image/svg+xml</dc:format><dc:type
         rdf:resource="http://purl.org/dc/dcmitype/StillImage" /></cc:Work></rdf:RDF></metadata><defs
   id="defs4607" /><sodipodi:namedview
   pagecolor="#ffffff"
   bordercolor="#666666"
   borderopacity="1"
   objecttolerance="10"
   gridtolerance="10"
   guidetolerance="10"
   inkscape:pageopacity="0"
   inkscape:pageshadow="2"
   inkscape:window-width="1920"
   inkscape:window-height="1017"
   id="namedview4605"
   showgrid="false"
   inkscape:zoom="2.8688332"
   inkscape:cx="29.284622"
   inkscape:cy="72.643926"
   inkscape:window-x="-8"
   inkscape:window-y="-8"
   inkscape:window-maximized="1"
   inkscape:current-layer="Layer_1" />
<path
   style="fill:#2e2e30"
   d="m 62.245374,143.03034 c 0.64,0.41 1.33,0.73 1.89,1.21 1.34,1.15 1.73,2.66 1.19,4.32 -0.5,1.55 -1.61,2.53 -3.28,2.73 -0.58,0.07 -1.17,0.05 -1.76,0.05 -18.35,0 -36.71,-0.01 -55.0599998,0.03 -2.4,0.01 -4.43999996,-0.45 -5.06999996,-3.05 -0.61,-2.51 0.6,-4.2 3.20999996,-5.16 -1.54,-1.35 -3.20999996,-2.51 -3.11999996,-4.63 0.1,-2.33 1.82999996,-3.66 3.38999996,-5.05 3.06,-2.73 6.13,-5.46 9.1899998,-8.2 0.68,-0.61 1.35,-0.88 0.69,-2.31 -0.64,-1.37 -0.15,-3.33 -0.13,-5.01 0.01,-1.07 1.44,-1.33 2.47,-1.16 2.32,0.38 3.09,-0.78 3.68,-2.85 3.51,-12.28 4.32,-24.879998 4.68,-37.529998 0.08,-2.93 -0.13,-5.88 0.09,-8.8 0.18,-2.36 -0.66,-3 -2.91,-2.83 -2.44,0.18 -3.46,-1.09 -2.71,-3.39 0.57,-1.76 2.8,-2.68 2.76,-4.88 0,-0.1 0.59,-0.35 0.88,-0.31 1.63,0.23 1.79,-0.72 1.68,-1.97 -0.11,-1.2 0.59,-2.84 -1.75,-2.66 -0.84,0.06 -1.33,-0.68 -1.42,-1.5 -0.08,-0.73 -0.18,-1.63 0.78,-1.88 1.59,-0.42 0.86,-1.2 0.41,-1.99 -2.31,-4.07 -4.43,-8.28 -6.98,-12.2 -4.6,-7.08 -6.0899998,-15.14 -7.8299998,-23.16 -0.39,-1.7799996 -0.78,-3.5499996 -1.28,-5.8399996 2.07,1.55 3.81,2.7 5.3499998,4.08 1.18,1.0599996 2.11,0.9499996 3.29,0.12 1.09,-0.77 2.37,-1.27 3.43,-2.07 2.47,-1.85 4.91,-2.84 7.66,0.05 0.7,-4.26 2.51,-7.13999999 6.9,-7.18999998521 3.08,-0.0300000048 4.98,1.90999998521 6.43,6.32999998521 2.1,-1.99 4.16,-1.09 5.95,0.3 4.69,3.6599996 9.05,3.7199996 13.2,-0.81 0.21,-0.23 0.54,-0.36 1.27,-0.83 -2.39,9.2299996 -2.92,18.4999996 -7.61,26.6199996 -2.72,4.71 -5.38,9.46 -8.07,14.18 -0.49,0.86 -1.48,1.66 0.3,2.37 0.76,0.31 0.85,1.36 0.55,2.24 -0.27,0.82 -0.79,1.28 -1.67,1.21 -2.14,-0.18 -1.34,1.43 -1.41,2.4 -0.07,0.99 -0.47,2.36 1.41,2.17 0.31,-0.03 0.93,0.14 0.93,0.17 -0.29,2.7 3.25,3.36 3.14,5.99 -0.08,1.95 -1,2.78 -2.87,2.47 -2.3,-0.37 -2.89,0.53 -2.88,2.82 0.02,14.09 0.41,28.15 3.62,41.959998 0.26,1.14 0.66,2.25 0.88,3.4 0.47,2.5 1.23,4.33 4.47,3.87 1.7,-0.24 2.13,0.93 1.98,2.82 -0.18,2.24 -1.16,4.76 1.6,6.72 3.13,2.21 5.82,5.04 8.67,7.63 3.85,3.46 3.79,5.69 -0.21,9 z"
   id="path4582"
   inkscape:label="main"
   inkscape:connector-curvature="0" />
<g
   id="g4602"
   inkscape:label="light"
   transform="translate(-45.444626,-60.699658)">
	<path
   style="opacity:0.43600003;fill:#ffffff;fill-opacity:1"
   d="m 90.1,198.02 c 1.56,0.01 1.59,-0.62 1.27,-1.8 -0.72,-2.66 -1.43,-5.33 -2.03,-8.02 -0.32,-1.4 -1.03,-1.83 -2.45,-1.83 -7.7,0.04 -15.41,-0.03 -23.11,-0.05 -0.73,0 -1.48,-0.15 -2.1,0.53 -3.23,3.58 -6.5,7.14 -10.15,11.14 13.29,0 25.93,-0.03 38.57,0.03 z"
   id="path4584"
   inkscape:connector-curvature="0" />
	<path
   style="opacity:0.43600003;fill:#ffffff;fill-opacity:1"
   d="m 74.45,175.29 c 0.5,0 1,0 1.51,0 3.84,-0.01 3.89,-0.01 3.77,-3.87 -0.43,-13.21 -0.93,-26.41 -1.36,-39.62 -0.13,-4.06 -0.08,-3.99 -4.13,-3.92 -1.42,0.03 -1.93,0.47 -1.9,1.88 0.05,3.18 -0.04,6.36 -0.03,9.54 0.02,10.37 -0.01,20.74 -2.1,30.97 -1.02,5.01 -1,5.02 4.24,5.02 z"
   id="path4586"
   inkscape:connector-curvature="0" />
	<path
   style="opacity:0.43600003;fill:#ffffff;fill-opacity:1"
   d="m 63.82,96.46 c 2.04,2.75 3.88,5.66 5.56,8.64 1.23,2.18 2.79,2.83 5.18,2.06 -6.53,-11.77 -9.6,-24.29 -8.51,-38.02 -1.71,0.98 -3.34,1.8 -4.84,2.8 -1.19,0.79 -2.08,0.64 -3.12,-0.23 -1.32,-1.11 -2.74,-2.1 -4.71,-3.6 0.54,2.31 0.9,3.9 1.29,5.49 1.97,8.05 4.08,16.03 9.15,22.86 z"
   id="path4588"
   inkscape:connector-curvature="0" />
	<path
   style="opacity:0.43600003;fill:#ffffff;fill-opacity:1"
   d="M 94.31,205.01 C 93.9,204.95 93.47,205 93.06,205 c -13.73,0 -27.46,0 -41.2,0 -0.75,0 -1.54,-0.07 -2.25,0.13 -1.19,0.34 -2.1,1.1 -2.09,2.48 0,1.43 0.99,2.06 2.22,2.3 0.73,0.14 1.5,0.08 2.25,0.08 6.78,0 13.56,0 20.35,0 7.28,0 14.57,0.01 21.85,-0.01 1.6,-0.01 3.16,-0.38 3.2,-2.37 0.04,-1.96 -1.53,-2.35 -3.08,-2.6 z"
   id="path4590"
   inkscape:connector-curvature="0" />
	<path
   style="opacity:0.43600003;fill:#ffffff;fill-opacity:1"
   d="m 82.44,120.87 c -2.43,0.02 -4.85,0.01 -7.28,0.01 0,0 0,-0.01 0,-0.01 -2.34,0 -4.69,0.01 -7.03,0 -1.14,-0.01 -2.28,-0.04 -2.35,1.52 -0.08,1.67 1.14,1.9 2.36,1.91 4.77,0.04 9.54,0.01 14.31,0.04 1.23,0.01 1.89,-0.49 1.91,-1.76 0.02,-1.34 -0.73,-1.72 -1.92,-1.71 z"
   id="path4592"
   inkscape:connector-curvature="0" />
	<path
   style="opacity:0.43600003;fill:#ffffff;fill-opacity:1"
   d="m 62.61,181.43 c -0.85,0 -1.87,0.01 -1.9,1.13 -0.04,1.34 1.11,1.22 2.01,1.23 3.09,0.02 6.18,0.01 9.27,0.01 3.17,0 6.35,0.01 9.52,-0.01 0.89,-0.01 2.1,0.2 2.17,-1.07 0.06,-1.26 -1.12,-1.27 -2.03,-1.27 -6.34,-0.03 -12.69,-0.03 -19.04,-0.02 z"
   id="path4594"
   inkscape:connector-curvature="0" />
	<path
   style="opacity:0.43600003;fill:#ffffff;fill-opacity:1"
   d="m 82.8,178.21 c -6.7,0 -13.4,0.01 -20.1,0.04 -0.81,0 -1.91,-0.12 -1.8,1.12 0.1,1.15 1.18,0.97 1.99,0.97 3.18,0.02 6.37,0.01 9.55,0 3.43,0 6.87,0.01 10.3,-0.01 0.81,0 1.9,0.14 1.93,-1.03 0.03,-1.18 -1.05,-1.09 -1.87,-1.09 z"
   id="path4596"
   inkscape:connector-curvature="0" />
	<path
   style="opacity:0.43600003;fill:#ffffff;fill-opacity:1"
   d="m 69.29,117.37 c -0.88,0 -1.51,0.36 -1.5,1.28 0,0.94 0.66,1.24 1.53,1.24 4.42,0 8.85,0 13.27,0.01 0.92,0 1.46,-0.47 1.5,-1.32 0.05,-0.98 -0.69,-1.21 -1.53,-1.21 -2.17,0 -4.34,0 -6.51,0 -2.25,0 -4.5,0.01 -6.76,0 z"
   id="path4598"
   inkscape:connector-curvature="0" />
	<path
   style="opacity:0.43600003;fill:#ffffff;fill-opacity:1"
   d="m 67.69,110.1 c -0.02,1.03 0.77,1.18 1.55,1.19 1.75,0.02 3.5,0.01 5.25,0.01 1.75,0 3.5,0.02 5.25,0 0.81,-0.01 1.55,-0.22 1.5,-1.24 -0.04,-0.85 -0.72,-1.08 -1.42,-1.08 -3.58,-0.02 -7.17,-0.01 -10.75,0.01 -0.7,0 -1.36,0.25 -1.38,1.11 z"
   id="path4600"
   inkscape:connector-curvature="0" />
</g>
</svg>