<?xml version="1.0" encoding="UTF-8" standalone="no"?>
<!-- Generator: Adobe Illustrator 23.0.2, SVG Export Plug-In . SVG Version: 6.00 Build 0)  -->

<svg
   xmlns:dc="http://purl.org/dc/elements/1.1/"
   xmlns:cc="http://creativecommons.org/ns#"
   xmlns:rdf="http://www.w3.org/1999/02/22-rdf-syntax-ns#"
   xmlns:svg="http://www.w3.org/2000/svg"
   xmlns="http://www.w3.org/2000/svg"
   xmlns:sodipodi="http://sodipodi.sourceforge.net/DTD/sodipodi-0.dtd"
   xmlns:inkscape="http://www.inkscape.org/namespaces/inkscape"
   version="1.1"
   id="Layer_1"
   x="0px"
   y="0px"
   viewBox="0 0 79.908516 127.01937"
   xml:space="preserve"
   sodipodi:docname="knight.svg"
   width="79.908516"
   height="127.01937"
   inkscape:version="0.92.4 (5da689c313, 2019-01-14)"><metadata
   id="metadata5198"><rdf:RDF><cc:Work
       rdf:about=""><dc:format>image/svg+xml</dc:format><dc:type
         rdf:resource="http://purl.org/dc/dcmitype/StillImage" /></cc:Work></rdf:RDF></metadata><defs
   id="defs5196" /><sodipodi:namedview
   pagecolor="#ffffff"
   bordercolor="#666666"
   borderopacity="1"
   objecttolerance="10"
   gridtolerance="10"
   guidetolerance="10"
   inkscape:pageopacity="0"
   inkscape:pageshadow="2"
   inkscape:window-width="1920"
   inkscape:window-height="1017"
   id="namedview5194"
   showgrid="false"
   inkscape:zoom="4.0571429"
   inkscape:cx="44.751773"
   inkscape:cy="81.817907"
   inkscape:window-x="-8"
   inkscape:window-y="-8"
   inkscape:window-maximized="1"
   inkscape:current-layer="Layer_1" />
<path
   style="fill:#2e2e30"
   d="m 61.730862,100.78937 c 3.82,3.41 7.13,6.35 10.43,9.31 3.98,3.57 4.02,5.42 0.1,9.08 0.32,0.14 0.6,0.23 0.86,0.38 1.81,1.01 2.72,2.49 2.15,4.57 -0.56,2.07 -2.06,2.89 -4.15,2.89 -18.02,-0.01 -36.05,-0.02 -54.07,0 -2.21,0 -3.8,-0.82 -4.3,-3.03 -0.55,-2.44 0.79,-3.92 2.94,-4.82 -3.9,-3.89 -3.83,-5.46 0.35,-9.21 3.12,-2.8 6.24,-5.59 9.35,-8.4 0.11,-0.1 0.18,-0.26 0.5,-0.77 -1.58,0 -2.95,0.09 -4.31,-0.02 -1.75,-0.14 -3.11,-0.769995 -1.83,-2.829995 0.38,-0.61 0.2,-0.85 -0.13,-1.23 -0.43,-0.49 -0.67,-1.29 -0.25,-1.6 2.39,-1.79 1.54,-4.45 1.76,-6.71 1.28,-12.62 5.78,-23.51 16.12,-31.45 0.53,-0.4 1.11,-0.74 1.02,-1.58 -0.39,-3.73 0.01,-7.57 -1.51,-11.14 -0.25,-0.58 -0.23,-1.49 -1.48,-0.88 -3.61,1.75 -7.34,1.14 -11.06,0.25 -0.6,-0.14 -1.23,-0.89 -1.85,-0.28 -2.07,2.02 -4.86,2.09 -7.39,2.85 -1.32,0.4 -2.37,1.04 -3.35,2.04 -2.3700003,2.41 -5.1100003,2.34 -7.5000003,-0.08 -1.79,-1.81 -4.39000003,-2.98 -4.11000003,-6.33 0.15,-1.78 1.51000003,-3.08 1.48000003,-4.71 -0.05,-2.48 2.04,-1.97 3.23,-2.72 5.9200003,-3.78 11.6300003,-7.76 13.2500003,-15.25 0.26,-1.19 0.81,-1.83 1.95,-2.27 1.79,-0.68 3.48,-1.64 5.27,-2.36 1.23,-0.49 1.39,-1.21 0.97,-2.35 -1.09,-3.0100003 -2.81,-5.5000003 -5.75,-7.0700003 21.08,-9.46 42.68,-6.65 52.97,16.7200003 7.25,16.48 8.15,33.7 4.19,51.19 -0.38,1.69 -1.09,3.31 -1.76,5.3 -2.03,-2.63 -3.69,-5.28 -7.16,-6.19 -0.1,7.08 -0.63,13.97 -1.28,20.85 -0.08,0.83 0.38,1.18 0.88,1.64 0.53,0.48 0.88,1.16 0.35,1.77 -0.65,0.76 -0.42,1.24 -0.03,2.06 0.71,1.49 -0.44,2.189995 -1.7,2.319995 -1.46,0.18 -2.97,0.06 -5.15,0.06 z"
   id="path5177"
   inkscape:label="main"
   inkscape:connector-curvature="0" />






<g
   id="g5750"
   style="opacity:0.453;fill:#ffffff;fill-opacity:1"
   inkscape:label="light"
   transform="translate(-210.70914,-85.030625)"><path
     id="path5179"
     d="m 256.33,97.17 c 8.81,2.52 13.07,8.58 15.87,15.98 2.98,7.87 4.42,16.09 5.1,24.45 1.02,12.55 0.73,25.07 -0.47,37.59 -0.16,1.62 -0.65,2.09 -2.25,2.1 -5.71,0.05 -5.81,0.1 -5.41,-5.33 0.75,-10.12 0.99,-20.25 0.44,-30.36 -0.67,-12.22 -2.31,-24.29 -7.46,-35.61 -1.4,-3.07 -3.38,-5.74 -5.82,-8.82 z"
     style="fill:#ffffff;fill-opacity:1"
     inkscape:connector-curvature="0" /><path
     id="path5181"
     d="m 255.41,176.81 c -6.4,0 -12.67,-0.01 -18.93,0.01 -0.92,0 -1.42,-0.3 -1.36,-1.3 0.7,-11.15 3.34,-21.48 12.16,-29.27 2.27,-2.01 3.11,-1.8 4,1.18 0.61,2.05 0.41,4.17 0.29,6.24 -0.44,7.62 0.06,15.05 3.6,22.01 0.13,0.27 0.13,0.61 0.24,1.13 z"
     style="fill:#ffffff;fill-opacity:1"
     inkscape:connector-curvature="0" /><path
     id="path5183"
     d="m 229.02,198.77 c 3.6,-4 6.72,-7.45 9.84,-10.91 0.59,-0.65 1.37,-0.51 2.11,-0.51 7.28,0.02 14.56,0.09 21.84,0.06 1.5,-0.01 2.24,0.38 2.55,1.98 0.51,2.62 1.25,5.19 2.03,7.75 0.39,1.3 0.01,1.64 -1.23,1.64 -12.11,-0.02 -24.22,-0.01 -37.14,-0.01 z"
     style="fill:#ffffff;fill-opacity:1"
     inkscape:connector-curvature="0" /><path
     id="path5185"
     d="m 249.2,210.05 c -6.7,0 -13.41,-0.02 -20.11,0.01 -1.78,0.01 -3.73,-0.08 -3.79,-2.28 -0.05,-2.2 1.87,-2.4 3.66,-2.39 13.41,0.02 26.82,0.01 40.23,0.02 0.59,0 1.19,-0.04 1.76,0.07 1.26,0.24 2.26,0.94 2.2,2.32 -0.05,1.34 -1.01,2.13 -2.33,2.18 -2.34,0.09 -4.69,0.06 -7.04,0.07 -4.85,0.01 -9.71,0 -14.58,0 z"
     style="fill:#ffffff;fill-opacity:1"
     inkscape:connector-curvature="0" /><path
     id="path5187"
     d="m 247.65,181.77 c -4.1,0 -8.21,0.02 -12.31,-0.02 -1,-0.01 -2.63,0.42 -2.56,-1.14 0.06,-1.32 1.71,-1.22 2.71,-1.15 5.27,0.4 10.55,0.11 15.82,0.17 2.93,0.03 5.85,-0.12 8.78,-0.16 0.5,-0.01 1,0.07 1.49,0.15 0.67,0.1 1.45,0.25 1.38,1.12 -0.06,0.82 -0.78,1.01 -1.49,1.02 -2.09,0.02 -4.19,0.01 -6.28,0.01 -2.51,0 -5.03,0 -7.54,0 z"
     style="fill:#ffffff;fill-opacity:1"
     inkscape:connector-curvature="0" /><path
     id="path5189"
     d="m 247.06,182.81 c 4.18,0 8.35,-0.01 12.53,0 0.82,0 1.91,-0.12 1.92,1.02 0.01,1.16 -1.11,1.03 -1.92,1.03 -8.35,0.01 -16.71,0.01 -25.06,-0.01 -0.8,0 -1.92,0.15 -1.92,-1.02 0,-1.16 1.11,-1.02 1.92,-1.02 4.18,-0.01 8.36,0 12.53,0 z"
     style="fill:#ffffff;fill-opacity:1"
     inkscape:connector-curvature="0" /><path
     id="path5191"
     d="m 237.11,110.79 c 1.96,-2.49 4.22,-3.62 7.04,-3.94 -0.6,3.72 -1.25,4.09 -7.04,3.94 z"
     style="fill:#ffffff;fill-opacity:1"
     inkscape:connector-curvature="0" /></g>
</svg>