<?xml version="1.0" encoding="utf-8"?>
<!-- Generator: Adobe Illustrator 23.0.2, SVG Export Plug-In . SVG Version: 6.00 Build 0)  -->
<svg version="1.1" id="Layer_1" xmlns="http://www.w3.org/2000/svg" xmlns:xlink="http://www.w3.org/1999/xlink" x="0px" y="0px"
	 viewBox="0 0 560 288" style="enable-background:new 0 0 560 288;" xml:space="preserve">
<path style="fill:#2E2E30;" d="M272.44,185.82c3.82,3.41,7.13,6.35,10.43,9.31c3.98,3.57,4.02,5.42,0.1,9.08
	c0.32,0.14,0.6,0.23,0.86,0.38c1.81,1.01,2.72,2.49,2.15,4.57c-0.56,2.07-2.06,2.89-4.15,2.89c-18.02-0.01-36.05-0.02-54.07,0
	c-2.21,0-3.8-0.82-4.3-3.03c-0.55-2.44,0.79-3.92,2.94-4.82c-3.9-3.89-3.83-5.46,0.35-9.21c3.12-2.8,6.24-5.59,9.35-8.4
	c0.11-0.1,0.18-0.26,0.5-0.77c-1.58,0-2.95,0.09-4.31-0.02c-1.75-0.14-3.11-0.77-1.83-2.83c0.38-0.61,0.2-0.85-0.13-1.23
	c-0.43-0.49-0.67-1.29-0.25-1.6c2.39-1.79,1.54-4.45,1.76-6.71c1.28-12.62,5.78-23.51,16.12-31.45c0.53-0.4,1.11-0.74,1.02-1.58
	c-0.39-3.73,0.01-7.57-1.51-11.14c-0.25-0.58-0.23-1.49-1.48-0.88c-3.61,1.75-7.34,1.14-11.06,0.25c-0.6-0.14-1.23-0.89-1.85-0.28
	c-2.07,2.02-4.86,2.09-7.39,2.85c-1.32,0.4-2.37,1.04-3.35,2.04c-2.37,2.41-5.11,2.34-7.5-0.08c-1.79-1.81-4.39-2.98-4.11-6.33
	c0.15-1.78,1.51-3.08,1.48-4.71c-0.05-2.48,2.04-1.97,3.23-2.72c5.92-3.78,11.63-7.76,13.25-15.25c0.26-1.19,0.81-1.83,1.95-2.27
	c1.79-0.68,3.48-1.64,5.27-2.36c1.23-0.49,1.39-1.21,0.97-2.35c-1.09-3.01-2.81-5.5-5.75-7.07c21.08-9.46,42.68-6.65,52.97,16.72
	c7.25,16.48,8.15,33.7,4.19,51.19c-0.38,1.69-1.09,3.31-1.76,5.3c-2.03-2.63-3.69-5.28-7.16-6.19c-0.1,7.08-0.63,13.97-1.28,20.85
	c-0.08,0.83,0.38,1.18,0.88,1.64c0.53,0.48,0.88,1.16,0.35,1.77c-0.65,0.76-0.42,1.24-0.03,2.06c0.71,1.49-0.44,2.19-1.7,2.32
	C276.13,185.94,274.62,185.82,272.44,185.82z"/>
<path style="fill:#8B8E93;" d="M256.33,97.17c8.81,2.52,13.07,8.58,15.87,15.98c2.98,7.87,4.42,16.09,5.1,24.45
	c1.02,12.55,0.73,25.07-0.47,37.59c-0.16,1.62-0.65,2.09-2.25,2.1c-5.71,0.05-5.81,0.1-5.41-5.33c0.75-10.12,0.99-20.25,0.44-30.36
	c-0.67-12.22-2.31-24.29-7.46-35.61C260.75,102.92,258.77,100.25,256.33,97.17z"/>
<path style="fill:#8B8E93;" d="M255.41,176.81c-6.4,0-12.67-0.01-18.93,0.01c-0.92,0-1.42-0.3-1.36-1.3
	c0.7-11.15,3.34-21.48,12.16-29.27c2.27-2.01,3.11-1.8,4,1.18c0.61,2.05,0.41,4.17,0.29,6.24c-0.44,7.62,0.06,15.05,3.6,22.01
	C255.3,175.95,255.3,176.29,255.41,176.81z"/>
<path style="fill:#8C8F94;" d="M229.02,198.77c3.6-4,6.72-7.45,9.84-10.91c0.59-0.65,1.37-0.51,2.11-0.51
	c7.28,0.02,14.56,0.09,21.84,0.06c1.5-0.01,2.24,0.38,2.55,1.98c0.51,2.62,1.25,5.19,2.03,7.75c0.39,1.3,0.01,1.64-1.23,1.64
	C254.05,198.76,241.94,198.77,229.02,198.77z"/>
<path style="fill:#8C8F94;" d="M249.2,210.05c-6.7,0-13.41-0.02-20.11,0.01c-1.78,0.01-3.73-0.08-3.79-2.28
	c-0.05-2.2,1.87-2.4,3.66-2.39c13.41,0.02,26.82,0.01,40.23,0.02c0.59,0,1.19-0.04,1.76,0.07c1.26,0.24,2.26,0.94,2.2,2.32
	c-0.05,1.34-1.01,2.13-2.33,2.18c-2.34,0.09-4.69,0.06-7.04,0.07C258.93,210.06,254.07,210.05,249.2,210.05z"/>
<path style="fill:#888A8E;" d="M247.65,181.77c-4.1,0-8.21,0.02-12.31-0.02c-1-0.01-2.63,0.42-2.56-1.14
	c0.06-1.32,1.71-1.22,2.71-1.15c5.27,0.4,10.55,0.11,15.82,0.17c2.93,0.03,5.85-0.12,8.78-0.16c0.5-0.01,1,0.07,1.49,0.15
	c0.67,0.1,1.45,0.25,1.38,1.12c-0.06,0.82-0.78,1.01-1.49,1.02c-2.09,0.02-4.19,0.01-6.28,0.01
	C252.68,181.77,250.16,181.77,247.65,181.77z"/>
<path style="fill:#8B8D92;" d="M247.06,182.81c4.18,0,8.35-0.01,12.53,0c0.82,0,1.91-0.12,1.92,1.02c0.01,1.16-1.11,1.03-1.92,1.03
	c-8.35,0.01-16.71,0.01-25.06-0.01c-0.8,0-1.92,0.15-1.92-1.02c0-1.16,1.11-1.02,1.92-1.02
	C238.71,182.8,242.89,182.81,247.06,182.81z"/>
<path style="fill:#888B8F;" d="M237.11,110.79c1.96-2.49,4.22-3.62,7.04-3.94C243.55,110.57,242.9,110.94,237.11,110.79z"/>
</svg>
