<?xml version="1.0" encoding="utf-8"?>
<!-- Generator: Adobe Illustrator 23.0.2, SVG Export Plug-In . SVG Version: 6.00 Build 0)  -->
<svg version="1.1" id="Layer_1" xmlns="http://www.w3.org/2000/svg" xmlns:xlink="http://www.w3.org/1999/xlink" x="0px" y="0px"
	 viewBox="0 0 560 288" style="enable-background:new 0 0 560 288;" xml:space="preserve">
<path style="fill:#2E2E30;" d="M287.16,201.3c1.92,0.93,3.08,2.35,2.4,4.55c-0.67,2.18-2.48,2.38-4.45,2.37
	c-15.42-0.03-30.84-0.03-46.27,0.01c-2.05,0.01-3.73-0.44-4.3-2.6c-0.56-2.16,0.62-3.48,2.52-4.28c-3.3-3.67-3.24-4.9,0.42-8.19
	c1.99-1.79,3.82-3.84,6.03-5.31c2.67-1.78,2.67-4.04,2.15-6.67c-0.35-1.76,0.74-2.33,2.17-2.12c1.96,0.28,2.57-0.7,3.05-2.35
	c3.01-10.49,3.71-21.25,3.99-32.07c0.05-1.93,0.05-3.86,0.04-5.78c-0.01-1.89,0.69-4.18-2.76-3.72c-1.24,0.16-1.37-1.27-1.32-2.28
	c0.05-1,0.14-2.01,1.58-2.13c0.68-0.06,1.75,0.7,2.01-0.7c0.25-1.32-0.76-1.66-1.59-2.21c-6.09-4.11-9.02-9.87-8.26-17.16
	c0.76-7.28,4.74-12.45,11.62-15.06c8.24-3.13,17.38,0.61,21.52,8.61c4.17,8.06,1.67,18.18-5.74,23.21
	c-0.55,0.38-1.11,0.76-1.71,1.04c-0.78,0.36-0.81,0.99-0.74,1.67c0.09,0.95,0.88,0.66,1.35,0.61c1.75-0.19,2.52,0.68,2.53,2.28
	c0.01,1.65-0.84,2.46-2.55,2.22c-1.03-0.14-1.5,0.23-1.51,1.37c-0.08,13.34,0.26,26.64,3.8,39.64c0.5,1.85,1.07,3.19,3.46,2.84
	c1.52-0.22,2.11,0.65,1.9,2.37c-0.27,2.22-0.68,4.49,1.89,6.19c2.49,1.64,4.57,3.92,6.8,5.95
	C290.36,196.47,290.35,197.88,287.16,201.3z"/>
<path style="fill:#8B8E93;" d="M260.72,112.17c-2.54,0.1-5.13-0.7-7.47-2.35c-4.27-3.02-4.37-7.98-0.21-11.14
	c4.61-3.5,12.4-3.43,16.95,0.16c3.82,3.01,3.73,7.96-0.19,10.86C267.36,111.5,264.8,112.22,260.72,112.17z"/>
<path style="fill:#8B8E93;" d="M239.43,196.5c3.16-3.48,5.85-6.42,8.52-9.38c0.66-0.73,1.49-0.63,2.32-0.63
	c6.27,0.02,12.54,0.09,18.8,0.05c1.4-0.01,2.15,0.36,2.46,1.8c0.47,2.2,1.04,4.39,1.7,6.54c0.4,1.3-0.01,1.63-1.24,1.63
	C261.39,196.5,250.79,196.5,239.43,196.5z"/>
<path style="fill:#8C8F94;" d="M258.53,177.11c-3.97-0.14-3.97-0.14-3.19-4.01c1.47-7.35,1.73-14.78,1.71-22.24
	c-0.01-3.93,0.21-7.87,0.28-11.8c0.02-1.14,0.16-2.11,1.6-1.83c1.17,0.22,3.08-0.99,3.22,1.5c0.04,0.67,0.2,1.33,0.23,1.99
	c0.35,10.97,0.7,21.93,1.02,32.9c0.11,3.73-0.1,3.89-3.92,3.6C259.05,177.18,258.64,177.12,258.53,177.11z"/>
<path style="fill:#8B8E93;" d="M257.19,206.58c-5.7,0-11.4,0.01-17.1-0.01c-0.83,0-1.68-0.08-2.47-0.29
	c-0.87-0.24-1.41-0.87-1.4-1.85c0.01-0.96,0.48-1.63,1.39-1.85c0.89-0.21,1.81-0.35,2.72-0.35c11.32-0.02,22.63-0.01,33.95-0.01
	c0.34,0,0.67-0.01,1.01,0.01c1.53,0.09,3.06,0.49,2.98,2.3c-0.07,1.62-1.53,2.05-2.98,2.05
	C269.26,206.59,263.22,206.58,257.19,206.58z"/>
<path style="fill:#8B8E93;" d="M276.87,109.93c1.31,6.47-0.37,11.35-4.92,15.13c-3.84,3.2-8.24,3.9-13.54,2.35
	C269.32,125.89,274.56,120.97,276.87,109.93z"/>
<path style="fill:#898C90;" d="M259.11,134.15c-1.84,0-3.68,0-5.52,0c-0.93,0-1.68-0.25-1.72-1.35c-0.04-1.15,0.6-1.69,1.7-1.68
	c3.77,0.02,7.53,0.06,11.3,0.08c1,0,1.61,0.39,1.61,1.46c0,1.05-0.58,1.5-1.59,1.49C262.96,134.14,261.04,134.15,259.11,134.15z"/>
<path style="fill:#888A90;" d="M257.53,181.51c-2.67,0-5.34,0.02-8.01-0.01c-0.78-0.01-1.93,0.25-1.97-0.93
	c-0.04-1.13,1.05-1.09,1.88-1.09c5.34,0.01,10.68,0.02,16.03,0.06c0.8,0,1.91-0.18,1.96,0.97c0.06,1.28-1.12,0.97-1.88,0.98
	C262.87,181.53,260.2,181.5,257.53,181.51z"/>
<path style="fill:#86898E;" d="M256.83,184.43c-2.51,0-5.02,0.02-7.52-0.01c-0.8-0.01-1.9,0.14-1.88-1.07
	c0.01-1.1,1.05-0.86,1.74-0.86c5.27-0.02,10.53-0.02,15.8,0c0.71,0,1.73-0.16,1.65,0.95c-0.07,0.93-0.99,0.99-1.76,1
	C262.18,184.43,259.5,184.43,256.83,184.43z"/>
</svg>
