<?xml version="1.0" encoding="UTF-8" standalone="no"?>
<!-- Generator: Adobe Illustrator 23.0.2, SVG Export Plug-In . SVG Version: 6.00 Build 0)  -->

<svg
   xmlns:dc="http://purl.org/dc/elements/1.1/"
   xmlns:cc="http://creativecommons.org/ns#"
   xmlns:rdf="http://www.w3.org/1999/02/22-rdf-syntax-ns#"
   xmlns:svg="http://www.w3.org/2000/svg"
   xmlns="http://www.w3.org/2000/svg"
   xmlns:sodipodi="http://sodipodi.sourceforge.net/DTD/sodipodi-0.dtd"
   xmlns:inkscape="http://www.inkscape.org/namespaces/inkscape"
   version="1.1"
   id="Layer_1"
   x="0px"
   y="0px"
   viewBox="0 0 55.355671 113.73274"
   xml:space="preserve"
   sodipodi:docname="pawn.svg"
   inkscape:version="0.92.4 (5da689c313, 2019-01-14)"
   width="55.355671"
   height="113.73274"><metadata
   id="metadata5800"><rdf:RDF><cc:Work
       rdf:about=""><dc:format>image/svg+xml</dc:format><dc:type
         rdf:resource="http://purl.org/dc/dcmitype/StillImage" /></cc:Work></rdf:RDF></metadata><defs
   id="defs5798" /><sodipodi:namedview
   pagecolor="#ffffff"
   bordercolor="#666666"
   borderopacity="1"
   objecttolerance="10"
   gridtolerance="10"
   guidetolerance="10"
   inkscape:pageopacity="0"
   inkscape:pageshadow="2"
   inkscape:window-width="1920"
   inkscape:window-height="1017"
   id="namedview5796"
   showgrid="false"
   inkscape:zoom="1.4344166"
   inkscape:cx="-65.878823"
   inkscape:cy="-97.170138"
   inkscape:window-x="-8"
   inkscape:window-y="-8"
   inkscape:window-maximized="1"
   inkscape:current-layer="Layer_1" />
<path
   style="fill:#2e2e30"
   d="m 52.759755,106.80258 c 1.92,0.93 3.08,2.35 2.4,4.55 -0.67,2.18 -2.48,2.38 -4.45,2.37 -15.42,-0.03 -30.84,-0.03 -46.2699996,0.01 -2.05,0.01 -3.72999998,-0.44 -4.29999998,-2.6 -0.56,-2.16 0.62,-3.48 2.51999998,-4.28 -3.29999998,-3.67 -3.23999998,-4.9 0.42,-8.19 1.99,-1.79 3.82,-3.84 6.03,-5.31 2.6699996,-1.78 2.6699996,-4.04 2.1499996,-6.67 -0.35,-1.76 0.74,-2.33 2.17,-2.12 1.96,0.28 2.57,-0.7 3.05,-2.35 3.01,-10.49 3.71,-21.25 3.99,-32.07 0.05,-1.93 0.05,-3.86 0.04,-5.78 -0.01,-1.89 0.69,-4.18 -2.76,-3.72 -1.24,0.16 -1.37,-1.27 -1.32,-2.28 0.05,-1 0.14,-2.01 1.58,-2.13 0.68,-0.06 1.75,0.7 2.01,-0.7 0.25,-1.32 -0.76,-1.66 -1.59,-2.21 -6.09,-4.11 -9.0199996,-9.87 -8.26,-17.16 0.76,-7.2799996 4.74,-12.4499996 11.62,-15.0599996 8.24,-3.13 17.38,0.61 21.52,8.61 4.17,8.0599996 1.67,18.1799996 -5.74,23.2099996 -0.55,0.38 -1.11,0.76 -1.71,1.04 -0.78,0.36 -0.81,0.99 -0.74,1.67 0.09,0.95 0.88,0.66 1.35,0.61 1.75,-0.19 2.52,0.68 2.53,2.28 0.01,1.65 -0.84,2.46 -2.55,2.22 -1.03,-0.14 -1.5,0.23 -1.51,1.37 -0.08,13.34 0.26,26.64 3.8,39.64 0.5,1.85 1.07,3.19 3.46,2.84 1.52,-0.22 2.11,0.65 1.9,2.37 -0.27,2.22 -0.68,4.49 1.89,6.19 2.49,1.64 4.57,3.92 6.8,5.95 3.17,2.87 3.16,4.28 -0.03,7.7 z"
   id="path5777"
   inkscape:label="main"
   inkscape:connector-curvature="0" />







<g
   id="g6353"
   style="opacity:0.456"
   inkscape:label="light"
   transform="translate(-234.40024,-94.49742)"><path
     id="path5779"
     d="m 260.72,112.17 c -2.54,0.1 -5.13,-0.7 -7.47,-2.35 -4.27,-3.02 -4.37,-7.98 -0.21,-11.14 4.61,-3.5 12.4,-3.43 16.95,0.16 3.82,3.01 3.73,7.96 -0.19,10.86 -2.44,1.8 -5,2.52 -9.08,2.47 z"
     style="fill:#fffffa;fill-opacity:1"
     inkscape:connector-curvature="0" /><path
     id="path5781"
     d="m 239.43,196.5 c 3.16,-3.48 5.85,-6.42 8.52,-9.38 0.66,-0.73 1.49,-0.63 2.32,-0.63 6.27,0.02 12.54,0.09 18.8,0.05 1.4,-0.01 2.15,0.36 2.46,1.8 0.47,2.2 1.04,4.39 1.7,6.54 0.4,1.3 -0.01,1.63 -1.24,1.63 -10.6,-0.01 -21.2,-0.01 -32.56,-0.01 z"
     style="fill:#fffffa;fill-opacity:1"
     inkscape:connector-curvature="0" /><path
     id="path5783"
     d="m 258.53,177.11 c -3.97,-0.14 -3.97,-0.14 -3.19,-4.01 1.47,-7.35 1.73,-14.78 1.71,-22.24 -0.01,-3.93 0.21,-7.87 0.28,-11.8 0.02,-1.14 0.16,-2.11 1.6,-1.83 1.17,0.22 3.08,-0.99 3.22,1.5 0.04,0.67 0.2,1.33 0.23,1.99 0.35,10.97 0.7,21.93 1.02,32.9 0.11,3.73 -0.1,3.89 -3.92,3.6 -0.43,-0.04 -0.84,-0.1 -0.95,-0.11 z"
     style="fill:#fffffa;fill-opacity:1"
     inkscape:connector-curvature="0" /><path
     id="path5785"
     d="m 257.19,206.58 c -5.7,0 -11.4,0.01 -17.1,-0.01 -0.83,0 -1.68,-0.08 -2.47,-0.29 -0.87,-0.24 -1.41,-0.87 -1.4,-1.85 0.01,-0.96 0.48,-1.63 1.39,-1.85 0.89,-0.21 1.81,-0.35 2.72,-0.35 11.32,-0.02 22.63,-0.01 33.95,-0.01 0.34,0 0.67,-0.01 1.01,0.01 1.53,0.09 3.06,0.49 2.98,2.3 -0.07,1.62 -1.53,2.05 -2.98,2.05 -6.03,0.01 -12.07,0 -18.1,0 z"
     style="fill:#fffffa;fill-opacity:1"
     inkscape:connector-curvature="0" /><path
     id="path5787"
     d="m 276.87,109.93 c 1.31,6.47 -0.37,11.35 -4.92,15.13 -3.84,3.2 -8.24,3.9 -13.54,2.35 10.91,-1.52 16.15,-6.44 18.46,-17.48 z"
     style="fill:#fffffa;fill-opacity:1"
     inkscape:connector-curvature="0" /><path
     id="path5789"
     d="m 259.11,134.15 c -1.84,0 -3.68,0 -5.52,0 -0.93,0 -1.68,-0.25 -1.72,-1.35 -0.04,-1.15 0.6,-1.69 1.7,-1.68 3.77,0.02 7.53,0.06 11.3,0.08 1,0 1.61,0.39 1.61,1.46 0,1.05 -0.58,1.5 -1.59,1.49 -1.93,-0.01 -3.85,0 -5.78,0 z"
     style="fill:#fffffa;fill-opacity:1"
     inkscape:connector-curvature="0" /><path
     id="path5791"
     d="m 257.53,181.51 c -2.67,0 -5.34,0.02 -8.01,-0.01 -0.78,-0.01 -1.93,0.25 -1.97,-0.93 -0.04,-1.13 1.05,-1.09 1.88,-1.09 5.34,0.01 10.68,0.02 16.03,0.06 0.8,0 1.91,-0.18 1.96,0.97 0.06,1.28 -1.12,0.97 -1.88,0.98 -2.67,0.04 -5.34,0.01 -8.01,0.02 z"
     style="fill:#fffffa;fill-opacity:1"
     inkscape:connector-curvature="0" /><path
     id="path5793"
     d="m 256.83,184.43 c -2.51,0 -5.02,0.02 -7.52,-0.01 -0.8,-0.01 -1.9,0.14 -1.88,-1.07 0.01,-1.1 1.05,-0.86 1.74,-0.86 5.27,-0.02 10.53,-0.02 15.8,0 0.71,0 1.73,-0.16 1.65,0.95 -0.07,0.93 -0.99,0.99 -1.76,1 -2.68,-0.01 -5.36,-0.01 -8.03,-0.01 z"
     style="fill:#fffffa;fill-opacity:1"
     inkscape:connector-curvature="0" /></g>
</svg>