<?xml version="1.0" encoding="UTF-8" standalone="no"?>
<!-- Created with Inkscape (http://www.inkscape.org/) -->

<svg
   xmlns:dc="http://purl.org/dc/elements/1.1/"
   xmlns:cc="http://creativecommons.org/ns#"
   xmlns:rdf="http://www.w3.org/1999/02/22-rdf-syntax-ns#"
   xmlns:svg="http://www.w3.org/2000/svg"
   xmlns="http://www.w3.org/2000/svg"
   xmlns:sodipodi="http://sodipodi.sourceforge.net/DTD/sodipodi-0.dtd"
   xmlns:inkscape="http://www.inkscape.org/namespaces/inkscape"
   width="153.01634mm"
   height="288.24463mm"
   viewBox="0 0 153.01634 288.24463"
   version="1.1"
   id="svg8"
   inkscape:version="0.92.4 (5da689c313, 2019-01-14)"
   sodipodi:docname="rook.svg">
  <defs
     id="defs2" />
  <sodipodi:namedview
     id="base"
     pagecolor="#ffffff"
     bordercolor="#666666"
     borderopacity="1.0"
     inkscape:pageopacity="0.0"
     inkscape:pageshadow="2"
     inkscape:zoom="0.35"
     inkscape:cx="-505.82237"
     inkscape:cy="547.57145"
     inkscape:document-units="mm"
     inkscape:current-layer="layer1"
     showgrid="false"
     inkscape:window-width="1920"
     inkscape:window-height="1017"
     inkscape:window-x="-8"
     inkscape:window-y="-8"
     inkscape:window-maximized="1" />
  <metadata
     id="metadata5">
    <rdf:RDF>
      <cc:Work
         rdf:about="">
        <dc:format>image/svg+xml</dc:format>
        <dc:type
           rdf:resource="http://purl.org/dc/dcmitype/StillImage" />
        <dc:title />
      </cc:Work>
    </rdf:RDF>
  </metadata>
  <g
     inkscape:label="Layer 1"
     inkscape:groupmode="layer"
     id="layer1"
     transform="translate(-26.486929,-5.4669628)">
    <path
       style="fill:#2e2e30;stroke-width:2.44275117"
       inkscape:connector-curvature="0"
       d="m 147.09777,230.20007 24.42751,21.98476 c 9.77101,9.77101 9.77101,14.65651 0,21.98476 4.8855,2.44276 9.77101,7.32826 7.32826,12.21376 0,4.8855 -4.88551,7.32825 -9.77101,7.32825 H 37.173966 c -4.885503,0 -9.771005,-2.44275 -9.771005,-7.32825 -2.442751,-4.8855 0,-9.771 7.328253,-12.21376 -9.771004,-9.771 -9.771004,-12.21375 0,-21.98476 L 59.158726,230.20007 H 46.94497 c -2.442751,0 -7.328253,-2.44275 -4.885502,-7.32825 l 2.442751,-2.44275 c -2.442751,-4.8855 -2.442751,-7.32826 2.442751,-7.32826 7.328254,2.44276 9.771005,-2.44275 12.213756,-7.32825 7.328254,-19.54201 12.213756,-41.52677 14.656508,-65.95428 V 88.520504 c 0,-4.885503 0,-7.328254 -4.885503,-7.328254 l -4.885502,-2.442751 2.442751,-7.328254 4.885502,-7.328253 2.442752,-4.885503 H 61.601478 c -7.328254,0 -9.771005,-2.442751 -9.771005,-9.771005 V 10.352465 c 0,-2.442751 0,-4.8855022 4.885502,-2.442751 h 2.442751 c 4.885503,-2.4427512 7.328254,0 7.328254,7.328254 v 4.885502 h 12.213756 l 2.442751,-7.328254 c -2.442751,-4.885502 0,-7.3282532 4.885503,-7.3282532 9.771004,2.4427512 9.771004,0 9.771004,9.7710052 0,4.885502 0,7.328253 4.885506,4.885502 9.771,0 9.771,0 9.771,-7.328254 0,-4.885502 0,-7.3282532 4.8855,-7.3282532 9.77101,2.4427512 9.77101,0 9.77101,9.7710052 0,4.885502 2.44275,7.328253 4.8855,4.885502 h 4.8855 c 4.88551,2.442751 4.88551,0 4.88551,-4.885502 0,-9.7710052 2.44275,-9.7710052 12.21375,-9.7710052 l 2.44275,4.8855022 v 41.526771 c 0,4.885502 -2.44275,7.328253 -9.771,7.328253 h -12.21376 c 2.44275,2.442751 4.8855,4.885503 2.44275,7.328254 l 2.44275,2.442751 c 4.88551,0 4.88551,4.885502 4.88551,7.328254 0,4.885502 -2.44275,4.885502 -4.88551,4.885502 -2.44275,0 -4.8855,0 -4.8855,4.885502 -2.44275,34.198518 0,70.839788 9.77101,105.038298 l 2.44275,12.21376 c 2.44275,7.32825 4.8855,9.771 12.21375,9.771 4.88551,0 9.77101,2.44276 4.88551,7.32826 v 2.44275 c 0,7.32825 0,7.32825 -7.32826,7.32825 z"
       id="path815"
       inkscape:label="main" />
    <g
       id="g7574"
       transform="matrix(2.4427512,0,0,2.4427512,-483.13204,-224.15165)"
       inkscape:label="light">
      <path
         id="path817"
         d="m 233,177 h -7 c -1,-1 1,-4 1,-6 l 3,-21 a 621,621 0 0 0 2,-20 c 7,0 7,0 7,6 a 4371,4371 0 0 0 0,41 z m -19,22 10,-11 2,-1 h 22 l 2,2 2,8 c 1,1 1,2 -1,2 z"
         inkscape:connector-curvature="0"
         style="opacity:0.45608138;fill:#ffffff;fill-opacity:1" />
      <path
         id="path819"
         d="m 234,210 h -20 c -2,0 -4,0 -4,-2 0,-2 2,-3 4,-3 a 18669,18669 0 0 0 44,3 c 0,2 -2,2 -3,2 z"
         inkscape:connector-curvature="0"
         style="opacity:0.45608138;fill:#ffffff;fill-opacity:1" />
      <path
         id="path821"
         d="m 220,101 c 5,9 14,12 24,12 l 9,1 2,1 h -31 c -3,0 -4,-1 -4,-4 z"
         inkscape:connector-curvature="0"
         style="opacity:0.45608138;fill:#ffffff;fill-opacity:1" />
      <path
         id="path823"
         d="m 236,121 h 9 l 2,1 c 0,2 -1,2 -2,2 a 1884,1884 0 0 0 -19,-2 l 2,-1 z"
         inkscape:connector-curvature="0"
         style="opacity:0.45608138;fill:#ffffff;fill-opacity:1" />
      <path
         id="path825"
         d="m 233,182 h -13 l -2,-1 c 0,-2 1,-1 2,-1 h 27 l 1,1 -1,1 z"
         inkscape:connector-curvature="0"
         style="opacity:0.45608138;fill:#ffffff;fill-opacity:1" />
      <path
         id="path827"
         d="m 232,185 h -12 l -2,-1 2,-1 h 25 l 2,1 -2,1 z"
         inkscape:connector-curvature="0"
         style="opacity:0.45608138;fill:#ffffff;fill-opacity:1" />
      <path
         id="path829"
         d="m 237,117 h 8 l 1,1 -1,2 h -15 l -2,-2 2,-1 z"
         inkscape:connector-curvature="0"
         style="opacity:0.45608138;fill:#ffffff;fill-opacity:1" />
    </g>
  </g>
</svg>
